<svg width="246" height="164" viewBox="0 0 246 164" fill="none" xmlns="http://www.w3.org/2000/svg">
<path d="M205 82.0002C205 36.7126 168.288 0 123 0C77.7125 0 40.9998 36.7126 40.9998 82.0002C18.3568 82.0002 0 100.357 0 123C0 145.643 18.3568 164 40.9998 164H205C227.643 164 246 145.643 246 123C246 100.357 227.643 82.0002 205 82.0002Z" fill="#E8F4FC"/>
<path d="M205 82.0002C205 36.7126 168.288 0 123 0V164H205C227.644 164 246 145.643 246 123C246 100.357 227.643 82.0002 205 82.0002Z" fill="#D1E5F5"/>
</svg>
