<?xml version="1.0" encoding="utf-8"?>
<!-- Generator: Adobe Illustrator 25.3.1, SVG Export Plug-In . SVG Version: 6.00 Build 0)  -->
<svg version="1.1" id="Слой_1" xmlns="http://www.w3.org/2000/svg" xmlns:xlink="http://www.w3.org/1999/xlink" x="0px" y="0px"
	 viewBox="0 0 32 32" style="enable-background:new 0 0 32 32;" xml:space="preserve">
<style type="text/css">
	.st0{fill:#D5C9FF;}
	.st1{opacity:0.93;}
	.st2{fill:#29ABE2;}
</style>
<g>
	<path class="st0" d="M13.43,22.97H3.03C1.36,22.97,0,21.62,0,19.94v-7.03c0-1.67,1.36-3.03,3.03-3.03h10.4
		c1.67,0,3.03,1.36,3.03,3.03v7.03C16.46,21.62,15.1,22.97,13.43,22.97z"/>
</g>
<g>
	<path class="st0" d="M28.97,22.97h-10.4c-1.67,0-3.03-1.36-3.03-3.03v-7.03c0-1.67,1.36-3.03,3.03-3.03l10.4,0
		c1.67,0,3.03,1.36,3.03,3.03v7.03C32,21.62,30.64,22.97,28.97,22.97z"/>
</g>
<g class="st1">
	<path class="st2" d="M18.63,2.17l6.17,8.7c1.4,1.97-0.01,4.7-2.43,4.7l-12.35,0c-2.42,0-3.83-2.73-2.43-4.7l6.17-8.7
		C14.96,0.5,17.45,0.5,18.63,2.17z"/>
</g>
<g>
	<path class="st2" d="M13.78,29.83l-6.17-8.7c-1.4-1.97,0.01-4.7,2.43-4.7l12.35,0c2.42,0,3.83,2.73,2.43,4.7l-6.17,8.7
		C17.45,31.5,14.96,31.5,13.78,29.83z"/>
</g>
</svg>
