<?xml version="1.0" standalone="no"?>
<!DOCTYPE svg PUBLIC "-//W3C//DTD SVG 1.1//EN" "http://www.w3.org/Graphics/SVG/1.1/DTD/svg11.dtd">
<svg xmlns="http://www.w3.org/2000/svg">
<defs >
<font id="Commissioner" horiz-adv-x="1169" ><font-face
    font-family="Commissioner"
    units-per-em="2000"
    panose-1="0 0 0 0 0 0 0 0 0 0"
    ascent="2034"
    descent="-412"
    alphabetic="0" />
<glyph unicode=" " glyph-name="space" horiz-adv-x="382" />
<glyph unicode="!" glyph-name="exclam" horiz-adv-x="529" d="M145 529Q137 767 126 1000T103 1465L430 1474Q418 1241 407 1006T387 532L145 529ZM264 -27Q206 -27 165 -3T101 62T78 155Q78 233 128 283T265 333Q323 333 364 311T428 248T451 155Q451 78 402
26T264 -27Z" />
<glyph unicode="&quot;" glyph-name="quotedbl" horiz-adv-x="872" d="M103 799Q95 972 85 1142T63 1482L360 1489Q349 1320 338 1148T320 801L103 799ZM523 799Q515 972 505 1142T483 1482L780 1489Q769 1320 758 1148T740 801L523 799Z" />
<glyph unicode="#" glyph-name="numbersign" horiz-adv-x="1395" d="M28 264V484Q131 484 227 484T407 484H887Q972 484 1068 484T1267 484V264Q1164 264 1068 264T887 264H407Q323 264 227 264T28 264ZM213 0Q231 100 249 200T290 430L374 891Q390 979 403 1050T428
1189T454 1331H679Q665 1259 653 1192T628 1053T599 890L515 430Q492 304 475 204T438 0H213ZM128 841V1061Q232 1061 328 1061T508 1061H988Q1073 1061 1169 1061T1368 1061V841Q1265 841 1169 841T988 841H508Q424 841 328 841T128 841ZM710 0Q729 100 746 200T788
430L871 890Q888 979 900 1050T925 1189T951 1331H1176Q1163 1259 1151 1192T1126 1053T1096 890L1012 430Q990 304 972 204T935 0H710Z" />
<glyph unicode="$" glyph-name="dollar" horiz-adv-x="1149" d="M569 -25Q483 -25 394 -11T228 26T102 73L126 337Q192 302 264 277T411 238T556 224Q632 224 689 241T777 294T809 387Q809 439 769 471T652 528T473 584Q348 621 261 669T127 794T81 990Q81 1110
133 1201T291 1345T558 1397Q620 1397 684 1389T809 1367T921 1336T1011 1300L988 1032Q927 1070 861 1094T730 1131T605 1143Q542 1143 487 1127T397 1078T362 991Q362 945 393 916T490 864T660 808Q822 759 915 705T1049 577T1089 391Q1089 265 1035 172T865
27T569 -25ZM477 -274Q477 -185 477 -102T477 62T477 223T477 384V948Q477 1029 477 1109T477 1269T477 1434T477 1606H699Q699 1518 699 1434T699 1270T699 1109T699 948V384Q699 302 699 222T699 62T699 -102T699 -274H477Z" />
<glyph unicode="%" glyph-name="percent" horiz-adv-x="1879" d="M380 0Q445 110 508 216T651 459L944 955Q999 1048 1045 1126T1134 1277T1222 1426H1486Q1442 1350 1399 1278T1310 1127T1208 955L915 459Q835 323 772 217T644 0H380ZM453 726Q335 726 246 770T106
896T55 1091Q55 1195 105 1277T245 1407T454 1455Q572 1455 661 1407T801 1277T851 1091Q851 978 801 896T662 770T453 726ZM453 912Q537 912 583 959T630 1089Q630 1139 609 1179T549 1244T454 1268Q371 1268 324 1218T276 1089Q276 1007 323 960T453 912ZM1414
-27Q1295 -27 1206 17T1066 143T1016 338Q1016 442 1066 524T1206 654T1414 702Q1533 702 1622 654T1762 524T1812 338Q1812 225 1762 143T1622 17T1414 -27ZM1414 160Q1497 160 1544 207T1591 336Q1591 387 1570 427T1509 491T1414 515Q1332 515 1285 465T1237
336Q1237 254 1284 207T1414 160Z" />
<glyph unicode="&amp;" glyph-name="ampersand" horiz-adv-x="1528" d="M1147 0Q1084 68 1020 136T892 272L454 739Q371 827 323 914T274 1103Q274 1218 330 1296T480 1415T689 1455Q806 1455 899 1417T1045 1305T1099 1126Q1099 1043 1069 982T988 876T881 800T771
745L653 898Q713 924 755 955T819 1026T842 1115Q842 1173 804 1213T704 1253Q645 1253 606 1214T567 1110Q567 1052 598 998T698 872L1117 424Q1216 319 1315 213T1513 0H1147ZM521 -24Q371 -24 271 29T121 172T71 373Q71 494 120 581T249 730T420 832L546 664Q489
635 448 598T384 514T361 414Q361 357 385 312T458 241T577 215Q622 215 667 233T754 285T835 371L980 220L985 181H955Q900 117 837 71T695 1T521 -24ZM1158 345L990 513Q1047 602 1101 687T1211 859L1454 701Q1381 612 1308 524T1158 345Z" />
<glyph unicode="&apos;" glyph-name="quotesingle" horiz-adv-x="452" d="M103 799Q95 972 85 1142T63 1482L360 1489Q349 1320 338 1148T320 801L103 799Z" />
<glyph unicode="(" glyph-name="parenleft" horiz-adv-x="824" d="M580 -265Q473 -198 384 -108T228 97T126 348T90 647Q90 809 126 946T228 1198T383 1402T580 1559L767 1470Q669 1386 584 1272T446 1004T393 647Q393 444 445 290T583 22T767 -177L580 -265Z" />
<glyph unicode=")" glyph-name="parenright" horiz-adv-x="824" d="M244 -265L57 -177Q155 -92 240 22T378 290T431 647Q431 849 379 1003T241 1271T57 1470L244 1559Q351 1492 440 1402T595 1197T697 946T733 647Q733 485 697 348T596 96T441 -108T244 -265Z" />
<glyph unicode="*" glyph-name="asterisk" horiz-adv-x="984" d="M839 714Q745 781 652 848T463 982Q360 1033 256 1084T48 1185L145 1352Q240 1285 333 1218T522 1083Q625 1033 729 982T937 881L839 714ZM145 714L48 881Q151 932 255 982T463 1084Q558 1151 651
1218T839 1352L937 1185Q833 1135 729 1084T522 983Q428 916 334 849T145 714ZM395 572Q404 687 414 802T434 1034Q425 1149 415 1264T395 1494H589Q579 1379 570 1264T550 1034Q560 918 570 803T589 572H395Z" />
<glyph unicode="+" glyph-name="plus" horiz-adv-x="1197" d="M466 104Q466 207 466 303T466 484V731Q466 816 466 912T466 1111H732Q732 1008 732 912T732 731V484Q732 399 732 303T732 104H466ZM103 478V737Q206 737 302 737T482 737H715Q800 737 896 737T1095
737V478Q992 478 896 478T715 478H482Q398 478 302 478T103 478Z" />
<glyph unicode="," glyph-name="comma" horiz-adv-x="500" d="M27 -314Q63 -257 86 -197T120 -70T131 74Q131 134 131 198T131 327L265 338Q348 329 384 275T421 141Q421 70 399 3T340 -123T259 -230T170 -311L27 -314Z" />
<glyph unicode="-" glyph-name="hyphen" horiz-adv-x="852" d="M103 472V731Q191 731 273 731T426 731Q498 731 580 731T750 731V472Q663 472 581 472T426 472Q355 472 273 472T103 472Z" />
<glyph unicode="." glyph-name="period" horiz-adv-x="529" d="M264 -27Q206 -27 165 -3T101 62T78 155Q78 233 128 283T265 333Q323 333 364 311T428 248T451 155Q451 78 402 26T264 -27Z" />
<glyph unicode="/" glyph-name="slash" horiz-adv-x="908" d="M32 0Q75 111 115 215T210 456L403 952Q459 1093 501 1202T588 1426H877Q847 1349 819 1277T759 1125T690 947L498 456Q445 320 404 216T320 0H32Z" />
<glyph unicode="0" glyph-name="zero" horiz-adv-x="1329" d="M670 -25Q514 -25 403 29T222 181T120 408T87 688Q87 899 148 1060T336 1313T663 1404Q814 1404 923 1352T1103 1204T1208 977T1243 689Q1243 474 1180 313T990 64T670 -25ZM666 231Q761 231 817 290T900
453T926 689Q926 828 899 930T814 1090T666 1147Q574 1147 517 1089T432 928T405 689Q405 555 430 452T513 290T666 231Z" />
<glyph unicode="1" glyph-name="one" horiz-adv-x="905" d="M114 882L43 1121Q179 1187 315 1252T587 1384L576 1109Q460 1052 345 996T114 882ZM428 0Q428 107 428 207T428 432V836Q428 939 428 1041T428 1248L587 1384L736 1375Q736 1258 736 1139T736 896V432Q736
308 736 208T736 0H428Z" />
<glyph unicode="2" glyph-name="two" horiz-adv-x="1138" d="M86 0V208Q141 255 195 301T305 393Q433 501 525 595T666 776T715 951Q715 1047 661 1095T498 1144Q451 1144 402 1134T302 1104T203 1058T106 1000L79 1294Q125 1316 180 1335T298 1370T427 1395T561
1404Q713 1404 818 1355T978 1213T1033 991Q1033 885 989 781T856 571T629 359L432 204L394 264H642Q744 264 846 264T1049 264V0H86Z" />
<glyph unicode="3" glyph-name="three" horiz-adv-x="1165" d="M559 -26Q487 -26 419 -18T288 4T172 38T75 78L98 358Q152 330 207 307T316 268T424 242T527 233Q657 233 713 281T769 406Q769 495 697 540T491 586Q447 586 406 586T322 586V812Q359 812 396 812T472
812Q563 812 620 833T703 894T730 985Q730 1065 672 1104T517 1144Q470 1144 421 1134T321 1107T222 1065T127 1011L99 1295Q144 1317 198 1337T313 1372T439 1396T569 1405Q721 1405 828 1362T991 1239T1048 1051Q1048 965 1014 902T923 800T795 745V721Q848 711
900 687T994 620T1061 518T1086 377Q1086 261 1030 170T857 26T559 -26Z" />
<glyph unicode="4" glyph-name="four" horiz-adv-x="1227" d="M669 0Q669 100 669 191T669 402L686 446V832Q686 935 686 1037T686 1243L901 1328Q848 1252 798 1181T697 1038L477 725Q432 662 389 600T301 474L291 541H746L778 553Q837 553 909 553T1051 553T1175
553V289Q1121 289 1051 289T909 289T778 289H49V495Q88 551 136 619T234 757T326 886L491 1121Q537 1185 582 1248T672 1376H976Q976 1252 976 1133T976 894V402Q976 283 976 192T976 0H669Z" />
<glyph unicode="5" glyph-name="five" horiz-adv-x="1166" d="M552 -26Q482 -26 415 -18T285 4T170 38T75 78L98 358Q152 330 206 307T315 268T422 242T523 233Q651 233 710 290T769 450Q769 524 739 570T653 639T523 661Q463 661 404 647T284 595L152 605V835Q152
980 152 1116T152 1376H1016V1112Q899 1112 780 1112T543 1112H345L437 1209Q437 1133 436 1057T432 906L431 835H455Q506 860 561 873T676 886Q790 886 883 838T1032 694T1087 454Q1087 311 1029 203T852 35T552 -26Z" />
<glyph unicode="6" glyph-name="six" horiz-adv-x="1234" d="M648 -26Q462 -26 338 53T150 287T87 673Q87 864 129 1003T249 1230T435 1361T674 1404Q730 1404 783 1398T885 1381T980 1354T1070 1321L1043 1044Q1002 1069 958 1087T870 1118T781 1136T694 1143Q580
1143 513 1092T417 934T387 666Q387 514 417 419T502 278T634 233Q707 233 754 264T825 347T848 458Q848 518 826 565T757 639T639 667Q609 667 578 662T514 644T448 609T382 550Q346 596 335 626T334 688T380 768L414 766Q443 795 478 817T553 856T640 880T736
889Q860 889 954 837T1101 690T1154 465Q1154 339 1100 227T934 44T648 -26Z" />
<glyph unicode="7" glyph-name="seven" horiz-adv-x="1099" d="M180 0Q237 126 294 252T406 502L580 889Q613 960 644 1031T708 1173L768 1112H510Q396 1112 281 1112T50 1112V1375H1034V1170Q983 1055 935 945T834 717L719 456Q670 342 620 229T519 0H180Z" />
<glyph unicode="8" glyph-name="eight" horiz-adv-x="1237" d="M619 -26Q434 -26 315 28T138 175T80 387Q80 497 122 568T227 679T356 734V757Q291 773 238 811T151 908T118 1049Q118 1156 177 1236T349 1361T619 1405Q776 1405 888 1361T1059 1237T1119 1049Q1119
968 1087 909T1000 811T881 757V734Q946 719 1009 679T1115 568T1157 387Q1157 268 1100 175T923 28T619 -26ZM619 231Q700 231 751 256T827 323T851 420Q851 481 822 523T739 586T617 608Q550 608 498 587T416 523T386 420Q386 366 410 324T486 256T619 231ZM619
830Q715 830 768 877T821 998Q821 1076 766 1117T619 1158Q528 1158 473 1117T418 998Q418 948 441 910T510 851T619 830Z" />
<glyph unicode="9" glyph-name="nine" horiz-adv-x="1234" d="M560 -26Q504 -26 451 -20T349 -3T253 24T164 57L191 334Q232 310 275 291T364 260T453 241T539 235Q653 235 720 286T817 444T846 712Q846 864 816 959T731 1100T599 1145Q526 1145 479 1114T409
1031T386 920Q386 860 408 813T477 739T594 711Q624 711 655 716T720 734T785 769T851 828Q888 782 899 752T900 690T854 610L819 612Q790 584 755 561T680 522T594 498T498 489Q374 489 280 541T133 688T80 913Q80 1039 134 1151T299 1334T586 1404Q771 1404 896
1325T1084 1091T1147 705Q1147 514 1105 375T985 148T799 17T560 -26Z" />
<glyph unicode=":" glyph-name="colon" horiz-adv-x="529" d="M264 665Q206 665 165 689T101 754T78 847Q78 925 128 975T265 1025Q323 1025 364 1003T428 940T451 847Q451 770 402 718T264 665ZM264 -27Q206 -27 165 -3T101 62T78 155Q78 233 128 283T265 333Q323
333 364 311T428 248T451 155Q451 78 402 26T264 -27Z" />
<glyph unicode=";" glyph-name="semicolon" horiz-adv-x="529" d="M264 665Q206 665 165 689T101 754T78 847Q78 925 128 975T265 1025Q323 1025 364 1003T428 940T451 847Q451 770 402 718T264 665ZM56 -314Q92 -257 115 -197T149 -70T160 74Q160 134 160 198T160
327L294 338Q377 329 413 275T450 141Q450 70 428 3T369 -123T288 -230T199 -311L56 -314Z" />
<glyph unicode="&lt;" glyph-name="less" horiz-adv-x="1157" d="M1055 108Q952 147 856 184T673 255L482 330Q398 363 301 400T103 477V737Q205 776 301 813T482 883L674 958Q759 991 855 1028T1055 1106V832Q965 798 875 763T693 693L501 619V594L692 521Q783
486 874 451T1055 381V108Z" />
<glyph unicode="=" glyph-name="equal" horiz-adv-x="1157" d="M115 237V496Q218 496 314 496T495 496H662Q747 496 843 496T1042 496V237Q940 237 844 237T662 237H495Q410 237 314 237T115 237ZM115 719V978Q218 978 314 978T495 978H662Q747 978 843 978T1042
978V719Q940 719 844 719T662 719H495Q410 719 314 719T115 719Z" />
<glyph unicode="&gt;" glyph-name="greater" horiz-adv-x="1157" d="M103 108V381Q192 416 283 451T465 521L656 594V619L465 692Q375 728 284 763T103 832V1106Q206 1067 302 1029T483 958L676 883Q760 851 856 814T1055 737V477Q953 438 857 401T676 330L483
255Q398 222 302 185T103 108Z" />
<glyph unicode="?" glyph-name="question" horiz-adv-x="901" d="M452 467Q315 467 252 521T188 665Q188 731 216 779T290 866T386 941Q426 969 461 998T518 1061T541 1137Q541 1192 499 1221T375 1251Q331 1251 283 1242T185 1215T85 1170L71 1422Q102 1435 142
1447T229 1471T331 1490T444 1498Q567 1498 653 1467T784 1370T829 1203Q829 1105 790 1036T693 918T582 829Q529 792 491 757T453 682Q453 640 480 625T542 609Q570 609 597 616T645 634L653 501Q632 493 600 486T530 473T452 467ZM423 -27Q365 -27 324 -3T260
62T237 155Q237 233 287 283T424 333Q482 333 523 311T587 248T610 155Q610 78 561 26T423 -27Z" />
<glyph unicode="@" glyph-name="at" horiz-adv-x="1784" d="M952 -287Q709 -287 530 -207T240 14T93 334T98 711Q135 888 217 1016T413 1227T663 1351T946 1391Q1140 1391 1293 1322T1547 1132T1687 851T1691 508Q1671 400 1627 326T1526 207T1411 142T1302 121Q1222
121 1163 142T1064 197T1007 273H989Q943 200 877 170T749 139Q636 139 565 206T468 382T468 617Q489 720 538 802T661 933T828 982Q878 982 921 967T997 924T1053 858H1073L1102 959L1313 971Q1291 868 1268 757T1220 532L1212 496Q1191 392 1219 349T1301 305Q1336
305 1368 321T1427 368T1475 444T1507 544Q1537 694 1510 817T1407 1031T1213 1169T942 1218Q763 1218 628 1152T404 963T279 672Q244 510 270 367T382 116T611 -54T952 -115Q1028 -115 1118 -101T1310 -50T1519 57V-140Q1436 -191 1343 -224T1152 -272T952 -287ZM820
349Q862 349 900 372T964 444L1019 702Q997 731 964 749T888 767Q813 767 766 713T701 575Q688 517 697 465T736 381T820 349Z" />
<glyph unicode="A" glyph-name="A" horiz-adv-x="1437" d="M42 0Q80 115 121 242T200 483L361 972Q404 1105 439 1211T509 1426H933Q969 1314 1003 1208T1081 972L1240 482Q1279 364 1319 239T1397 0H1057Q1025 114 991 233T926 460L730 1147H706L508 467Q476
356 441 235T372 0H42ZM386 298L421 544H1058L1086 298H386Z" />
<glyph unicode="B" glyph-name="B" horiz-adv-x="1324" d="M641 0Q533 0 441 0T273 0T140 0Q140 115 140 223T140 465V949Q140 1087 140 1198T140 1426Q261 1426 412 1426T717 1426Q863 1426 961 1403T1118 1336T1202 1232T1228 1098Q1228 1007 1194 940T1101
830T968 767V742Q1053 723 1119 683T1223 574T1260 400Q1260 310 1232 237T1134 110T944 29T641 0ZM463 247H671Q757 247 812 268T894 329T920 428Q920 517 860 559T687 602H385V833H673Q746 833 794 856T865 920T889 1013Q889 1096 840 1138T691 1181H463Q463
1112 463 1040T463 876V536Q463 450 463 382T463 247Z" />
<glyph unicode="C" glyph-name="C" horiz-adv-x="1367" d="M828 -27Q654 -27 515 26T278 177T127 411T75 712Q75 926 162 1094T412 1359T802 1455Q871 1455 938 1446T1068 1422T1183 1388T1279 1346L1254 1040Q1176 1089 1104 1118T966 1161T839 1175Q717 1175
622 1122T473 965T418 712Q418 617 446 533T530 383T672 281T871 244Q918 244 965 250T1061 271T1157 309T1253 369L1271 67Q1228 43 1176 25T1067 -4T949 -21T828 -27Z" />
<glyph unicode="D" glyph-name="D" horiz-adv-x="1467" d="M141 0Q141 115 141 223T141 465V949Q141 1087 141 1198T141 1426Q225 1426 317 1426T508 1426T708 1426Q871 1426 998 1379T1212 1241T1346 1019T1392 718Q1392 567 1352 437T1223 208T989 55T635 0Q539
0 455 0T294 0T141 0ZM470 263H634Q788 263 878 323T1009 487T1049 722Q1049 821 1026 902T954 1041T830 1131T651 1163H470Q470 1096 470 1028T470 872V544Q470 461 470 394T470 263Z" />
<glyph unicode="E" glyph-name="E" horiz-adv-x="1193" d="M140 0Q140 115 140 223T140 465V949Q140 1087 140 1198T140 1426H1087V1157Q995 1157 890 1157T641 1157H305L462 1374Q462 1257 462 1146T462 897V517Q462 384 462 276T462 52L326 269H665Q784 269
890 269T1096 269V0H140ZM387 594V844H648Q780 844 874 844T1055 844V594Q963 594 869 594T648 594H387Z" />
<glyph unicode="F" glyph-name="F" horiz-adv-x="1154" d="M141 0Q141 115 141 223T141 465V949Q141 1087 141 1198T141 1426H1074V1152Q982 1152 877 1152T628 1152H330L463 1374Q463 1257 463 1146T463 897V465Q463 331 463 223T463 0H141ZM380 567V831H634Q765
831 859 831T1042 831V567Q949 567 855 567T633 567H380Z" />
<glyph unicode="G" glyph-name="G" horiz-adv-x="1458" d="M845 -25Q661 -25 518 29T277 183T127 417T75 713Q75 931 164 1098T421 1360T822 1455Q897 1455 968 1446T1104 1421T1223 1386T1320 1345L1295 1040Q1211 1088 1133 1118T983 1161T848 1175Q756 1175
678 1146T540 1057T449 912T416 712Q416 615 443 529T527 378T669 275T873 238Q935 238 991 244T1099 263T1201 295T1303 343L1342 50Q1308 36 1255 23T1135 -2T994 -19T845 -25ZM1033 44Q1033 156 1033 240T1033 409Q1033 507 1033 583T1033 738H1342Q1342 659
1342 583T1342 409Q1342 324 1342 241T1342 50L1033 44Z" />
<glyph unicode="H" glyph-name="H" horiz-adv-x="1500" d="M1030 0Q1030 115 1030 223T1030 465V949Q1030 1087 1030 1198T1030 1426H1360Q1360 1309 1360 1198T1360 949V465Q1360 331 1360 223T1360 0H1030ZM141 0Q141 115 141 223T141 465V949Q141 1087 141
1198T141 1426H470Q470 1309 470 1198T470 949V465Q470 331 470 223T470 0H141ZM380 581V855H1127V581H380Z" />
<glyph unicode="I" glyph-name="I" horiz-adv-x="629" d="M147 0Q147 115 147 223T147 465V949Q147 1087 147 1198T147 1426H483Q483 1309 483 1198T483 949V465Q483 331 483 223T483 0H147Z" />
<glyph unicode="J" glyph-name="J" horiz-adv-x="639" d="M5 -310Q58 -240 92 -168T144 -15T162 158V636V949Q162 1087 162 1198T162 1426H492Q492 1309 492 1198T492 949V660Q492 523 492 392T492 138Q492 55 479 -13T441 -135T385 -232T314 -310H5Z" />
<glyph unicode="K" glyph-name="K" horiz-adv-x="1397" d="M962 0Q896 95 838 178T723 343L535 612H443V870H531L699 1090Q759 1168 818 1245T955 1426H1334Q1241 1313 1153 1204T975 984L749 705L743 850L994 503Q1052 423 1118 331T1248 152T1359 0H962ZM141
0Q141 115 141 223T141 465V949Q141 1087 141 1198T141 1426H469Q469 1309 469 1198T469 949V465Q469 331 469 223T469 0H141Z" />
<glyph unicode="L" glyph-name="L" horiz-adv-x="1161" d="M141 0Q141 115 141 223T141 465V949Q141 1087 141 1198T141 1426H470Q470 1309 470 1198T470 949V518Q470 384 470 276T470 53L356 287H635Q739 287 817 287T963 287T1102 287V0H141Z" />
<glyph unicode="M" glyph-name="M" horiz-adv-x="1927" d="M100 0Q115 112 129 224T159 467L218 945Q235 1074 249 1189T278 1426H611Q659 1304 702 1193T789 971L959 535H981L1146 970Q1188 1081 1229 1190T1317 1426H1646Q1661 1306 1675 1191T1707 944L1768
464Q1784 334 1798 224T1827 0H1514Q1496 150 1479 285T1448 538L1406 876H1384L1260 513Q1215 379 1170 248T1085 0H867Q839 75 807 161T740 336T673 512L535 876H513L472 540Q458 421 442 286T407 0H100Z" />
<glyph unicode="N" glyph-name="N" horiz-adv-x="1500" d="M141 0Q141 115 141 223T141 465V949Q141 1087 141 1198T141 1426H428Q528 1280 617 1151T795 891L1027 555H1051V949Q1051 1087 1051 1198T1051 1426H1360Q1360 1309 1360 1198T1360 949V465Q1360 331
1360 223T1360 0H1076Q994 120 904 250T707 534L472 874H449V465Q449 331 449 223T449 0H141Z" />
<glyph unicode="O" glyph-name="O" horiz-adv-x="1628" d="M821 -27Q628 -27 487 32T255 195T120 432T75 712Q75 920 157 1088T403 1356T812 1455Q998 1455 1137 1398T1368 1238T1507 1002T1553 714Q1553 501 1469 334T1221 70T821 -27ZM816 244Q915 244 989 281T1112
385T1185 535T1210 714Q1210 813 1184 898T1107 1048T983 1148T816 1184Q719 1184 645 1147T520 1045T444 894T418 714Q418 619 443 535T517 385T641 282T816 244Z" />
<glyph unicode="P" glyph-name="P" horiz-adv-x="1298" d="M140 0Q140 115 140 223T140 465V949Q140 1087 140 1198T140 1426Q227 1426 373 1426T712 1426Q885 1426 1001 1383T1176 1242T1235 977Q1235 836 1185 729T1023 561T727 500Q678 500 623 500T514 500T423
500V750H652Q738 750 793 773T874 844T901 970Q901 1031 883 1070T833 1130T765 1159T689 1168H307L464 1374Q464 1257 464 1146T464 897V465Q464 331 464 223T464 0H140Z" />
<glyph unicode="Q" glyph-name="Q" horiz-adv-x="1628" d="M1211 -348Q1150 -292 1090 -239T972 -134L821 1L999 179L1213 9Q1283 -47 1352 -101T1499 -220L1211 -348ZM821 -27Q628 -27 487 32T255 195T120 432T75 712Q75 920 157 1088T403 1356T812 1455Q998
1455 1137 1398T1368 1238T1507 1002T1553 714Q1553 501 1469 334T1221 70T821 -27ZM816 244Q915 244 989 281T1112 385T1185 535T1210 714Q1210 813 1184 898T1107 1048T983 1148T816 1184Q719 1184 645 1147T520 1045T444 894T418 714Q418 619 443 535T517 385T641
282T816 244Z" />
<glyph unicode="R" glyph-name="R" horiz-adv-x="1383" d="M140 0Q140 115 140 223T140 465V949Q140 1087 140 1198T140 1426Q205 1426 293 1426T483 1426T687 1426Q861 1426 981 1388T1164 1259T1227 1014Q1227 891 1179 793T1023 638T743 581L870 701L1064 415Q1109
349 1160 274T1259 127T1345 0H972Q918 84 868 161T771 311L540 675L735 526H404V761H642Q722 761 776 780T859 847T887 976Q887 1037 869 1074T821 1133T753 1161T677 1168H229L463 1374Q463 1253 463 1143T463 897V465Q463 331 463 223T463 0H140Z" />
<glyph unicode="S" glyph-name="S" horiz-adv-x="1201" d="M594 -26Q505 -26 412 -12T237 26T104 74L128 363Q197 324 272 297T423 254T568 239Q637 239 688 256T767 307T795 397Q795 453 759 489T654 553T492 608Q362 646 270 696T130 826T81 1031Q81 1156 136
1251T302 1401T583 1455Q650 1455 717 1447T847 1424T965 1392T1059 1354L1034 1064Q970 1104 901 1131T766 1172T646 1186Q585 1186 536 1170T457 1121T428 1038Q428 989 455 956T540 897T689 844Q860 793 959 738T1099 604T1141 408Q1141 277 1084 180T906 28T594
-26Z" />
<glyph unicode="T" glyph-name="T" horiz-adv-x="1291" d="M482 0Q482 115 482 223T482 465V897Q482 1035 482 1146T482 1374L606 1139H417Q304 1139 217 1139T51 1139V1426H1240V1139Q1162 1139 1075 1139T874 1139H685L810 1374Q810 1257 810 1146T810 897V465Q810
331 810 223T810 0H482Z" />
<glyph unicode="U" glyph-name="U" horiz-adv-x="1457" d="M731 -27Q513 -27 381 43T188 242T128 548Q128 587 128 651T128 793T128 949Q128 1087 128 1198T128 1426H456Q456 1309 456 1198T456 949V566Q456 464 484 392T572 282T730 244Q828 244 887 282T973
392T1000 567V949Q1000 1087 1000 1198T1000 1426H1328Q1328 1309 1328 1198T1328 949Q1328 871 1328 793T1328 649T1328 547Q1328 371 1265 242T1070 43T731 -27Z" />
<glyph unicode="V" glyph-name="V" horiz-adv-x="1420" d="M488 0Q455 107 418 228T348 452L209 899Q185 975 157 1065T100 1248T45 1426H410Q446 1291 486 1138T562 849L697 334H721L863 852Q901 989 941 1137T1020 1426H1375Q1348 1340 1320 1248T1263 1068T1211
900L1070 451Q1037 346 1000 227T929 0H488Z" />
<glyph unicode="W" glyph-name="W" horiz-adv-x="2094" d="M421 0Q393 106 361 226T301 450L183 898Q151 1017 114 1158T43 1426H414Q441 1295 471 1151T528 876L627 391H652L754 882Q772 966 791 1059T831 1247T869 1426H1220Q1248 1295 1278 1154T1338 880L1444
391H1468L1569 883Q1595 1009 1624 1154T1680 1426H2052Q2017 1299 1980 1159T1910 901L1788 450Q1759 344 1727 224T1666 0H1266Q1238 120 1207 251T1149 502L1043 954H1018L916 502Q890 384 860 251T802 0H421Z" />
<glyph unicode="X" glyph-name="X" horiz-adv-x="1420" d="M54 0Q107 99 162 202T276 417L467 775V698L299 993Q241 1094 181 1198T51 1426H425Q469 1342 511 1262T591 1109L689 922H714L808 1110Q845 1184 885 1264T966 1426H1328Q1265 1308 1207 1201T1100 1004L916
664V752L1104 439Q1174 324 1237 219T1369 0H981Q937 81 898 153T822 291L703 511H678L567 290Q531 221 496 151T419 0H54Z" />
<glyph unicode="Y" glyph-name="Y" horiz-adv-x="1362" d="M527 503L233 1062Q185 1153 142 1236T41 1426H415Q452 1343 478 1284T527 1171T579 1054L671 846H698L789 1048Q820 1115 844 1170T896 1285T960 1426H1323Q1275 1334 1227 1243T1134 1063L841 503H527ZM520
0Q520 115 520 223T520 465V780H850V465Q850 331 850 223T850 0H520Z" />
<glyph unicode="Z" glyph-name="Z" horiz-adv-x="1374" d="M79 0V173Q129 238 191 318T317 481T435 633L915 1253L953 1153H594Q484 1153 359 1153T100 1153V1426H1280V1204Q1199 1101 1121 1001T964 802L466 167L440 273H766Q844 273 939 273T1127 273T1291 273V0H79Z" />
<glyph unicode="[" glyph-name="bracketleft" horiz-adv-x="814" d="M152 -246Q152 -131 152 -23T152 218V1071Q152 1210 152 1320T152 1549H763V1311Q702 1311 631 1311T464 1311H298L424 1497Q424 1379 424 1269T424 1019V271Q424 137 424 30T424 -194L318 -9H480Q560
-9 631 -9T769 -9V-246H152Z" />
<glyph unicode="\" glyph-name="backslash" horiz-adv-x="908" d="M588 0Q545 111 505 215T410 456L219 948Q181 1045 150 1124T91 1276T32 1426H320Q365 1311 407 1202T505 952L699 456Q752 320 792 216T877 0H588Z" />
<glyph unicode="]" glyph-name="bracketright" horiz-adv-x="814" d="M51 -246V-9Q113 -9 183 -9T350 -9H516L390 -194Q390 -76 390 34T390 283V1031Q390 1166 390 1273T390 1496L496 1311H334Q254 1311 184 1311T46 1311V1549H662Q662 1434 662 1326T662 1084V231Q662
93 662 -17T662 -246H51Z" />
<glyph unicode="^" glyph-name="asciicircum" horiz-adv-x="1264" d="M900 720Q837 821 773 921T644 1122H620Q557 1024 493 925T366 727H97Q186 890 276 1051T456 1375H809Q898 1213 988 1049T1168 723L900 720Z" />
<glyph unicode="_" glyph-name="underscore" horiz-adv-x="859" d="M-20 -325V-83Q83 -83 179 -83T360 -83H500Q584 -83 680 -83T879 -83V-325Q777 -325 681 -325T500 -325H360Q275 -325 179 -325T-20 -325Z" />
<glyph unicode="`" glyph-name="grave" horiz-adv-x="1200" d="M573 1131Q519 1198 464 1266T352 1405T237 1547L545 1554Q607 1449 669 1345T794 1134L573 1131Z" />
<glyph unicode="a" glyph-name="a" horiz-adv-x="1054" d="M358 -24Q272 -24 208 12T108 113T72 269Q72 354 102 411T179 505T283 560T394 588L672 631Q674 689 650 721T581 767T472 780Q438 780 398 775T315 758T225 731T131 692L117 947Q154 960 202 974T306
999T424 1018T553 1025Q678 1025 766 989T902 874T949 670Q949 621 949 550T949 423V328Q949 252 949 172T949 0H694L675 133H652Q625 95 584 59T487 -1T358 -24ZM477 207Q512 207 547 223T612 270T664 343V496Q652 487 634 480T580 464T481 442Q445 435 419 418T379
375T364 312Q364 255 398 231T477 207Z" />
<glyph unicode="b" glyph-name="b" horiz-adv-x="1184" d="M712 -27Q645 -27 591 -9T492 43T412 124H391L359 0H123Q123 107 123 207T123 432V987Q123 1109 123 1228T123 1466L422 1492Q422 1374 422 1250T422 987V896H446Q472 936 511 965T599 1009T709 1025Q841
1025 931 956T1067 768T1113 500Q1113 361 1070 241T937 47T712 -27ZM599 227Q670 227 716 266T785 366T807 498Q807 571 784 632T715 731T597 768Q562 768 530 758T470 727T422 679V339Q440 305 465 280T523 241T599 227Z" />
<glyph unicode="c" glyph-name="c" horiz-adv-x="969" d="M599 -22Q429 -22 311 45T131 230T69 497Q69 648 126 767T297 955T580 1024Q640 1024 698 1015T809 990T902 952L880 694Q823 727 776 743T690 765T622 771Q509 771 442 700T374 506Q374 423 407 360T506
260T668 224Q705 224 742 231T815 252T885 288L900 30Q866 15 822 4T722 -15T599 -22Z" />
<glyph unicode="d" glyph-name="d" horiz-adv-x="1170" d="M473 -27Q336 -27 247 47T115 241T72 500Q72 649 117 768T253 956T476 1025Q535 1025 585 1010T673 965T739 896H763V987Q763 1109 763 1227T763 1466L1061 1492Q1061 1374 1061 1250T1061 987V432Q1061
308 1061 208T1061 0H808L790 131H769Q733 80 689 45T591 -8T473 -27ZM586 227Q627 227 660 241T719 280T763 339V679Q743 707 716 727T655 757T587 768Q517 768 471 731T401 633T377 498Q377 428 399 367T468 266T586 227Z" />
<glyph unicode="e" glyph-name="e" horiz-adv-x="1053" d="M623 -26Q430 -26 308 42T128 229T70 502Q70 656 124 774T285 958T553 1025Q689 1025 786 977T935 830T987 583Q987 543 985 512T978 450L722 547Q724 560 725 574T726 600Q726 701 679 758T556 816Q499
816 455 783T386 689T361 546V497Q361 410 392 348T490 253T659 220Q699 220 751 227T858 250T960 290L970 38Q931 20 880 6T763 -17T623 -26ZM185 450V610L804 623L978 574V450H185Z" />
<glyph unicode="f" glyph-name="f" horiz-adv-x="819" d="M202 0Q202 107 202 207T202 432V532Q202 591 202 661T202 807T202 955T202 1096Q202 1214 234 1291T323 1413T452 1476T603 1494Q649 1494 690 1490T765 1478T820 1462L797 1218Q762 1232 725 1240T651
1248Q570 1248 529 1210T488 1089Q488 1069 488 1041T488 998L500 948V432Q500 308 500 208T500 0H202ZM37 773V998H775V773Q681 773 595 773T420 773H287H37Z" />
<glyph unicode="g" glyph-name="g" horiz-adv-x="1099" d="M478 -409Q365 -409 289 -390T167 -339T103 -265T83 -179Q83 -113 115 -71T190 -4T267 30V50Q246 55 221 73T176 122T157 198Q157 231 169 262T209 319T280 363V383Q248 396 211 420T141 481T87 571T66
693Q66 786 112 861T253 981T492 1025Q548 1025 590 1020T677 1008T790 1002H1064V805Q971 805 886 805T713 805L791 929Q855 887 885 824T916 679Q916 582 873 516T757 410T593 351Q510 333 470 318T430 273Q430 254 447 243T500 228T593 223H633Q760 223 851
201T990 123T1039 -32Q1039 -135 989 -207T856 -323T675 -388T478 -409ZM515 -203Q598 -203 652 -182T733 -134T760 -86Q760 -61 744 -43T681 -16T548 -6H517Q476 -8 435 -21T366 -58T338 -111Q338 -129 348 -145T380 -175T435 -195T515 -203ZM487 517Q513 519
542 528T598 552T640 592T656 651Q656 697 632 727T571 772T493 787Q453 787 418 772T361 729T339 660Q339 621 360 592T414 543T487 517Z" />
<glyph unicode="h" glyph-name="h" horiz-adv-x="1157" d="M123 0Q123 107 123 207T123 432V987Q123 1109 123 1228T123 1466L422 1492Q422 1374 422 1250T422 987V859H447Q477 902 520 940T619 1001T747 1025Q897 1025 974 937T1051 672Q1051 606 1051 550T1051
432Q1051 310 1051 209T1051 0H753Q753 107 753 207T753 416V576Q753 664 724 708T620 753Q577 753 541 736T475 689T422 623V416Q422 304 422 206T422 0H123Z" />
<glyph unicode="i" glyph-name="i" horiz-adv-x="557" d="M129 0Q129 107 129 207T129 432V532Q129 631 129 709T129 857T129 998L428 1007Q428 935 428 864T428 713T428 532V432Q428 308 428 208T428 0H129ZM276 1152Q193 1152 144 1191T94 1320Q94 1400 143
1442T278 1485Q363 1485 411 1441T460 1320Q460 1231 411 1192T276 1152Z" />
<glyph unicode="j" glyph-name="j" horiz-adv-x="555" d="M-18 -393Q35 -329 67 -257T114 -102T129 75V432V532Q129 631 129 709T129 857T129 998L428 1007Q428 935 428 864T428 713T428 532Q428 433 428 351T428 194T428 43Q428 -31 418 -94T389 -211T340 -308T272
-384L-18 -393ZM279 1152Q196 1152 147 1191T97 1320Q97 1400 146 1442T281 1485Q366 1485 414 1441T463 1320Q463 1231 414 1192T279 1152Z" />
<glyph unicode="k" glyph-name="k" horiz-adv-x="1148" d="M762 0Q718 62 673 123T584 244L471 399H396V597H476L575 739Q621 803 666 868T757 998H1104Q1032 907 961 818T819 639L678 463L665 595L839 364Q912 273 984 182T1128 0H762ZM123 0Q123 107 123 207T123
432V987Q123 1109 123 1228T123 1466L422 1492Q422 1374 422 1250T422 987V374Q422 273 422 185T422 0H123Z" />
<glyph unicode="l" glyph-name="l" horiz-adv-x="545" d="M123 0Q123 107 123 207T123 432V987Q123 1109 123 1228T123 1466L422 1492Q422 1374 422 1250T422 987V432Q422 308 422 208T422 0H123Z" />
<glyph unicode="m" glyph-name="m" horiz-adv-x="1745" d="M123 0Q123 107 123 207T123 432V532Q123 647 123 763T123 998L374 1013L387 840H412Q446 888 492 930T598 999T736 1025Q851 1025 914 968T1000 802L1020 799Q1026 770 1029 739T1033 672Q1033 606 1033
550T1033 432Q1033 310 1033 209T1033 0H734Q734 107 734 207T734 416V576Q734 664 707 708T609 753Q568 753 534 735T472 688T422 623V416Q422 304 422 206T422 0H123ZM1341 0Q1341 107 1341 207T1341 416V576Q1341 664 1314 708T1216 753Q1175 753 1141 736T1079
689T1028 623L983 838H1009Q1045 887 1093 930T1203 999T1344 1025Q1493 1025 1566 936T1640 672Q1640 606 1640 550T1640 432Q1640 310 1640 209T1640 0H1341Z" />
<glyph unicode="n" glyph-name="n" horiz-adv-x="1157" d="M123 0Q123 107 123 207T123 432V532Q123 647 123 763T123 998L374 1013L387 839H412Q446 888 494 930T604 999T747 1025Q897 1025 974 937T1051 672Q1051 606 1051 550T1051 432Q1051 310 1051 209T1051
0H753Q753 107 753 207T753 416V576Q753 664 724 708T620 753Q577 753 541 736T475 689T422 623V416Q422 304 422 206T422 0H123Z" />
<glyph unicode="o" glyph-name="o" horiz-adv-x="1195" d="M602 -27Q466 -27 366 16T200 133T102 302T69 502Q69 651 129 769T307 956T596 1025Q728 1025 827 986T993 875T1093 708T1126 502Q1126 351 1065 232T887 43T602 -27ZM601 217Q676 217 724 257T797 363T822
502Q822 590 794 652T716 748T600 781Q526 781 476 744T400 644T374 502Q374 428 399 363T475 258T601 217Z" />
<glyph unicode="p" glyph-name="p" horiz-adv-x="1184" d="M123 -393Q123 -286 123 -181T123 48V532Q123 647 123 763T123 998L388 1013L397 876H421Q451 923 493 956T590 1007T709 1025Q841 1025 931 956T1067 768T1113 500Q1113 361 1070 241T937 47T712 -27Q651
-27 602 -11T512 36T440 108H422V32Q422 -80 422 -178T422 -384L123 -393ZM599 227Q670 227 716 266T785 366T807 498Q807 571 784 632T715 731T597 768Q562 768 530 758T470 727T422 679V339Q440 305 465 280T523 241T599 227Z" />
<glyph unicode="q" glyph-name="q" horiz-adv-x="1177" d="M763 -393Q763 -286 763 -183T763 32V109H745Q712 67 672 37T583 -10T473 -27Q336 -27 247 47T115 241T72 500Q72 649 117 768T253 956T476 1025Q541 1025 595 1008T691 957T763 876H788L796 998L1061
1013Q1061 889 1061 772T1061 532V48Q1061 -76 1061 -176T1061 -384L763 -393ZM586 227Q627 227 660 241T719 280T763 339V679Q743 707 716 727T655 757T587 768Q517 768 471 731T401 633T377 498Q377 428 399 367T468 266T586 227Z" />
<glyph unicode="r" glyph-name="r" horiz-adv-x="825" d="M123 0Q123 107 123 207T123 432V532Q123 647 123 763T123 998L374 1013L387 829H412Q451 910 498 952T594 1010T688 1025Q711 1025 739 1021T793 1007L767 717Q728 720 697 722T631 724Q603 724 574 718T516
694T464 644T422 561V416Q422 304 422 206T422 0H123Z" />
<glyph unicode="s" glyph-name="s" horiz-adv-x="932" d="M449 -26Q375 -26 308 -18T185 6T87 42L106 295Q150 268 204 248T316 216T429 205Q469 205 501 212T551 239T569 298Q569 326 550 344T485 377T360 413Q271 436 210 471T118 563T87 706Q87 857 185 940T454
1024Q528 1024 596 1014T719 988T813 954L793 699Q747 728 693 747T590 777T508 787Q476 787 450 779T408 751T393 701Q393 675 406 656T455 620T560 584Q668 555 737 522T839 436T873 298Q873 202 830 129T693 15T449 -26Z" />
<glyph unicode="t" glyph-name="t" horiz-adv-x="845" d="M550 -27Q439 -27 361 6T241 114T199 309Q199 374 199 442T199 586T199 744T199 923Q199 1036 199 1130T199 1322L493 1375Q493 1297 493 1228T493 1085T493 923V403Q493 312 526 265T636 217Q668 217
706 228T779 265L796 23Q770 7 730 -4T643 -21T550 -27ZM37 773V998H791V773Q697 773 603 773T420 773H287H37Z" />
<glyph unicode="u" glyph-name="u" horiz-adv-x="1141" d="M409 -27Q259 -27 182 62T105 327Q105 394 105 443T105 544Q105 643 105 718T105 860T105 998L404 1007Q404 900 404 797T404 582V416Q404 329 433 285T537 240Q578 240 613 257T678 304T731 370V582Q731
693 731 792T731 998H1030Q1030 892 1030 788T1030 544V432Q1030 308 1030 208T1030 0H779L766 159H740Q707 111 660 69T550 0T409 -27Z" />
<glyph unicode="v" glyph-name="v" horiz-adv-x="1086" d="M383 0Q351 94 317 189T249 377L186 554Q147 664 108 776T29 998L351 1007Q379 902 406 798T463 587L534 322H558L630 588Q659 697 686 799T740 998H1057Q1018 887 979 775T900 552L837 374Q804 280 771
188T705 0H383Z" />
<glyph unicode="w" glyph-name="w" horiz-adv-x="1661" d="M339 0Q310 94 281 188T221 380L166 557Q131 668 98 777T29 998L347 1007Q371 903 398 790T451 571L514 309H536L597 575Q621 682 645 786T693 998H971Q995 896 1019 789T1068 577L1130 309H1153L1215
582Q1238 683 1263 794T1310 998H1632Q1597 887 1563 777T1493 557L1438 382Q1407 285 1377 189T1317 0H983Q960 90 935 187T887 372L829 598H807L750 368Q729 281 705 186T659 0H339Z" />
<glyph unicode="x" glyph-name="x" horiz-adv-x="1135" d="M40 0Q79 70 109 121T165 218T221 317L354 548L355 483L222 698Q191 748 163 792T105 886T36 998L369 1007Q401 947 426 896T481 788L553 648H575L645 787Q673 843 697 891T750 998H1087Q1045 932 1015
885T957 796T897 702L758 486L742 550L897 313Q946 239 991 170T1102 0H746Q717 55 694 100T641 202L561 355H541L470 209Q443 152 420 106T368 0H40Z" />
<glyph unicode="y" glyph-name="y" horiz-adv-x="1098" d="M227 -393Q268 -291 310 -185T393 23V-33Q357 70 320 174T247 379L184 559Q146 666 107 778T29 998L351 1007Q379 898 406 795T461 582L531 312H555L632 582Q662 687 691 790T749 998H1069Q1038 918 1009
843T946 678T863 462L754 182Q681 -8 630 -142T536 -384L227 -393Z" />
<glyph unicode="z" glyph-name="z" horiz-adv-x="1031" d="M63 0V140Q137 237 208 329T344 507L613 859L649 771H457Q409 771 344 771T207 771T72 771V998H942V831Q907 786 863 729T771 610T679 491L419 155L391 227H601Q649 227 713 227T845 227T971 227V0H63Z" />
<glyph unicode="{" glyph-name="braceleft" horiz-adv-x="891" d="M645 -246Q528 -246 444 -208T314 -97T269 81Q269 110 269 138T269 195T269 252T269 309T269 367Q269 429 248 468T192 526T111 545H32V757H111Q156 757 191 775T248 833T269 934Q269 963 269
992T269 1049T269 1106T269 1164T269 1222Q269 1379 369 1464T645 1549H840V1311Q793 1311 755 1311T690 1311Q618 1311 580 1275T541 1168V945Q541 866 521 813T459 725T356 663V640Q418 614 459 578T520 488T541 356V134Q541 65 579 28T690 -9Q716 -9 755 -9T846
-9V-246H645Z" />
<glyph unicode="|" glyph-name="bar" horiz-adv-x="565" d="M153 -320Q153 -231 153 -148T153 16T153 177T153 338V902Q153 983 153 1063T153 1223T153 1388T153 1560H412Q412 1472 412 1388T412 1224T412 1063T412 902V338Q412 257 412 177T412 17T412 -147T412
-320H153Z" />
<glyph unicode="}" glyph-name="braceright" horiz-adv-x="891" d="M51 -246V-9Q97 -9 135 -9T200 -9Q273 -9 311 28T350 134V357Q350 436 370 489T432 577T535 640V663Q473 689 432 725T371 815T350 946V1168Q350 1238 312 1274T200 1311Q175 1311 136 1311T45
1311V1549H246Q363 1549 447 1511T576 1400T621 1222Q621 1193 621 1164T621 1107T621 1050T621 993T621 935Q621 874 642 835T699 776T780 757H858V545H780Q735 545 700 527T643 469T621 368Q621 339 621 311T621 253T621 196T621 138T621 81Q621 -76 522 -161T246
-246H51Z" />
<glyph unicode="~" glyph-name="asciitilde" horiz-adv-x="1157" d="M808 411Q737 411 677 432T566 480T472 529T390 550Q343 550 315 524T280 449H103Q103 616 173 711T360 807Q429 807 488 786T596 738T690 689T774 668Q820 668 846 694T877 770H1055Q1055 602
988 507T808 411Z" />
<glyph unicode="&#xa0;" glyph-name="uni00A0" horiz-adv-x="382" />
<glyph unicode="&#xa1;" glyph-name="exclamdown" horiz-adv-x="529" d="M99 -396Q111 -164 122 72T141 546L383 549Q392 311 403 78T426 -388L99 -396ZM264 744Q206 744 165 768T101 833T78 926Q78 1004 128 1054T265 1104Q323 1104 364 1082T428 1019T451 926Q451
849 402 797T264 744Z" />
<glyph unicode="&#xa2;" glyph-name="cent" horiz-adv-x="969" d="M468 -274Q468 -185 468 -102T468 62T468 223T468 384V594Q468 675 468 755T468 915T468 1080T468 1252H676Q676 1164 676 1080T676 916T676 755T676 594V384Q676 302 676 222T676 61T676 -103T676
-274H468ZM599 -22Q429 -22 311 45T131 230T69 497Q69 648 126 767T297 955T580 1024Q640 1024 698 1015T809 990T902 952L880 694Q823 727 776 743T690 765T622 771Q509 771 442 700T374 506Q374 423 407 360T506 260T668 224Q705 224 742 231T815 252T885 288L900
30Q866 15 822 4T722 -15T599 -22Z" />
<glyph unicode="&#xa3;" glyph-name="sterling" horiz-adv-x="1213" d="M100 0V161Q161 210 192 263T235 372T247 482Q247 582 247 680T247 879Q247 1136 377 1270T775 1404Q836 1404 895 1396T1006 1371T1099 1333L1072 1068Q1012 1099 962 1114T872 1135T801
1140Q685 1140 624 1074T562 868V576Q562 509 546 450T484 333T351 219L329 271H599Q721 271 814 271T987 271T1149 271V0H100ZM103 630V837Q207 837 303 837T483 837H560Q645 837 741 837T940 837V630Q838 630 742 630T560 630H483Q399 630 303 630T103 630Z"
/>
<glyph unicode="&#xa4;" glyph-name="currency" horiz-adv-x="1304" d="M649 194Q548 194 463 223T316 310T219 450T185 642Q185 776 244 876T410 1031T653 1087Q755 1087 840 1055T987 963T1084 822T1118 642Q1118 497 1058 397T893 246T649 194ZM248 50L61 237Q134
310 202 378T329 505L517 318Q457 258 390 191T248 50ZM651 437Q738 437 795 488T853 641Q853 702 827 748T756 819T652 845Q594 845 549 820T477 749T450 641Q450 573 476 528T548 460T651 437ZM332 779Q272 839 205 907T64 1047L246 1229Q319 1157 387 1089T514
961L332 779ZM1058 52Q986 125 918 193T790 320L973 503Q1032 443 1100 376T1241 235L1058 52ZM975 776L788 964Q848 1024 916 1092T1056 1232L1243 1045Q1171 972 1103 904T975 776Z" />
<glyph unicode="&#xa5;" glyph-name="yen" horiz-adv-x="1300" d="M502 492L223 1027Q196 1079 172 1125T118 1229T41 1375H398Q433 1296 457 1239T504 1132T552 1021L639 818H666L757 1023Q784 1084 806 1135T854 1242T913 1375H1259Q1216 1291 1170 1202T1080
1029L803 492H502ZM496 0Q496 111 496 214T496 446V748H810V446Q810 318 810 215T810 0H496ZM142 240V423Q245 423 341 423T521 423H784Q868 423 964 423T1163 423V240Q1061 240 965 240T784 240H521Q437 240 341 240T142 240ZM142 561V744Q245 744 341 744T521
744H784Q868 744 964 744T1163 744V561Q1061 561 965 561T784 561H521Q437 561 341 561T142 561Z" />
<glyph unicode="&#xa6;" glyph-name="brokenbar" horiz-adv-x="565" d="M153 720V902Q153 983 153 1063T153 1223T153 1388T153 1560H412Q412 1472 412 1388T412 1224T412 1063T412 902V720H153ZM153 -320Q153 -231 153 -148T153 16T153 177T153 338V520H412V338Q412
257 412 177T412 17T412 -147T412 -320H153Z" />
<glyph unicode="&#xa7;" glyph-name="section" horiz-adv-x="1160" d="M496 -261Q409 -261 330 -250T183 -218T66 -173L85 79Q139 45 203 21T335 -18T465 -32Q523 -32 569 -19T641 24T668 105Q668 148 644 175T560 225T397 278Q288 310 215 355T106 463T69 614Q69
693 104 762T208 881T377 955L512 782Q477 776 446 755T396 701T376 627Q376 583 397 552T467 496T595 449Q723 413 806 370T931 262T972 95Q972 -10 923 -90T768 -215T496 -261ZM810 248L660 403Q723 418 761 462T799 563Q799 611 774 643T690 701T527 755Q425
782 351 827T238 939T199 1101Q199 1263 309 1359T619 1455Q703 1455 779 1443T920 1411T1031 1369L1012 1117Q953 1155 893 1178T778 1211T685 1221Q656 1221 625 1215T566 1194T523 1154T506 1089Q506 1052 527 1024T597 973T726 927Q853 891 936 848T1061 744T1102
592Q1102 478 1032 387T810 248Z" />
<glyph unicode="&#xa8;" glyph-name="dieresis" horiz-adv-x="1200" d="M825 1144Q752 1144 710 1184T668 1304Q668 1376 710 1419T827 1462Q900 1462 942 1418T984 1304Q984 1224 942 1184T825 1144ZM370 1144Q297 1144 255 1184T213 1304Q213 1376 255 1419T372
1462Q446 1462 487 1418T529 1304Q529 1224 487 1184T370 1144Z" />
<glyph unicode="&#xa9;" glyph-name="copyright" horiz-adv-x="1606" d="M810 -27Q621 -27 483 31T254 188T119 416T75 688Q75 888 157 1050T400 1308T801 1404Q1043 1404 1205 1308T1449 1050T1531 689Q1531 484 1447 322T1202 67T810 -27ZM833 311Q710 311 624
359T494 493T449 686Q449 795 490 881T614 1016T818 1066Q861 1066 903 1060T984 1042T1051 1014L1035 823Q974 860 927 870T848 880Q771 880 723 831T674 692Q674 601 728 547T881 492Q923 492 962 504T1038 539L1050 349Q1025 338 993 330T921 316T833 311ZM809
138Q984 138 1106 208T1292 402T1356 689Q1356 849 1294 973T1108 1169T802 1240Q621 1240 498 1169T313 974T250 688Q250 532 311 408T496 211T809 138Z" />
<glyph unicode="&#xaa;" glyph-name="ordfeminine" horiz-adv-x="809" d="M278 659Q174 659 121 720T67 868Q67 934 90 979T149 1054T226 1098T301 1120L523 1164Q526 1203 509 1226T457 1260T371 1271Q337 1271 296 1264T207 1242T112 1201L101 1397Q130 1408
166 1418T246 1436T335 1450T431 1455Q566 1455 644 1392T723 1185Q723 1150 723 1095T723 998V934Q723 877 723 813T723 676H539L526 792H510Q488 755 454 725T376 677T278 659ZM373 832Q400 832 426 842T476 873T518 927V1071Q508 1063 495 1057T456 1043T388
1025Q360 1019 334 1007T292 974T275 921Q275 874 304 853T373 832Z" />
<glyph unicode="&#xab;" glyph-name="guillemotleft" horiz-adv-x="1291" d="M931 -4Q843 124 756 252T580 508Q668 636 755 764T931 1020L1223 1002Q1140 881 1057 760T890 516V492Q974 372 1057 252T1223 11L931 -4ZM396 -4Q308 124 221 252T45 508Q133 636
220 764T396 1020L688 1002Q605 881 522 760T355 516V492Q439 372 522 252T688 11L396 -4Z" />
<glyph unicode="&#xac;" glyph-name="logicalnot" horiz-adv-x="1157" d="M788 289Q788 392 788 488T788 669V847L1010 663Q919 663 835 663T675 663H482Q398 663 302 663T103 663V922Q206 922 302 922T482 922H675Q760 922 856 922T1055 922V669Q1055 584 1055
488T1055 289H788Z" />
<glyph unicode="&#xad;" glyph-name="uni00AD" horiz-adv-x="852" d="M103 472V731Q191 731 273 731T426 731Q498 731 580 731T750 731V472Q663 472 581 472T426 472Q355 472 273 472T103 472Z" />
<glyph unicode="&#xae;" glyph-name="registered" horiz-adv-x="1156" d="M583 481Q401 481 286 552T116 739T61 988Q61 1129 117 1244T288 1426T575 1494Q751 1494 866 1426T1038 1243T1095 989Q1095 843 1036 729T863 548T583 481ZM364 719Q364 767 364 811T364
907V1099Q364 1152 364 1196T364 1289L495 1268Q495 1223 495 1182T495 1091V907Q495 855 495 811T495 719H364ZM582 577Q718 577 808 630T944 777T989 989Q989 1104 946 1196T812 1344T576 1399Q434 1399 343 1345T209 1198T166 988Q166 906 189 832T262 700T391
610T582 577ZM695 719Q672 757 650 791T607 858L524 988L604 939H469V1025H558Q606 1025 635 1043T664 1111Q664 1147 649 1162T613 1181T576 1185H453L364 1289Q402 1289 456 1289T581 1289Q687 1289 743 1252T800 1126Q800 1055 757 1004T606 953L658 1000L735
885Q765 842 795 797T847 719H695Z" />
<glyph unicode="&#xaf;" glyph-name="overscore" horiz-adv-x="1200" d="M258 1192V1412Q335 1412 421 1412T600 1412Q694 1412 779 1412T942 1412V1192Q864 1192 779 1192T600 1192Q507 1192 421 1192T258 1192Z" />
<glyph unicode="&#xb0;" glyph-name="degree" horiz-adv-x="1019" d="M509 598Q377 598 278 646T124 785T68 1003Q68 1117 123 1207T278 1351T511 1404Q642 1404 741 1351T895 1208T951 1003Q951 876 896 786T741 647T509 598ZM509 806Q600 806 651 858T703 1000Q703
1054 680 1098T613 1169T511 1196Q420 1196 368 1140T316 1000Q316 940 339 897T405 830T509 806Z" />
<glyph unicode="&#xb1;" glyph-name="plusminus" horiz-adv-x="1157" d="M103 0V259Q206 259 302 259T482 259H675Q760 259 856 259T1055 259V0Q952 0 856 0T675 0H482Q398 0 302 0T103 0ZM103 732V991Q206 991 302 991T482 991H675Q760 991 856 991T1055 991V732Q952
732 856 732T675 732H482Q398 732 302 732T103 732ZM446 383Q446 486 446 582T446 762V960Q446 1045 446 1141T446 1340H712Q712 1238 712 1142T712 960V762Q712 678 712 582T712 383H446Z" />
<glyph unicode="&#xb2;" glyph-name="uni00B2" horiz-adv-x="836" d="M64 602V756Q103 786 142 816T220 877Q312 947 376 1005T473 1117T507 1228Q507 1287 470 1317T356 1348Q313 1348 267 1336T173 1301T79 1249L59 1474Q92 1489 133 1502T219 1526T312 1542T410
1548Q520 1548 597 1514T714 1417T754 1265Q754 1194 723 1127T628 992T465 856L324 757L295 805H434Q517 805 600 805T765 805V602H64Z" />
<glyph unicode="&#xb3;" glyph-name="uni00B3" horiz-adv-x="857" d="M411 579Q359 579 310 584T214 598T129 621T59 648L76 857Q115 838 154 823T232 796T308 779T382 773Q472 773 509 804T547 886Q547 941 499 970T356 999Q326 999 296 999T236 999V1145Q263
1145 289 1145T343 1145Q434 1145 477 1175T521 1256Q521 1306 482 1330T374 1354Q328 1354 281 1343T187 1311T96 1264L76 1477Q109 1491 148 1503T230 1526T321 1542T417 1548Q528 1548 606 1519T726 1434T767 1306Q767 1222 715 1172T587 1106V1090Q638 1081
685 1054T763 978T794 856Q794 734 701 657T411 579Z" />
<glyph unicode="&#xb4;" glyph-name="acute" horiz-adv-x="1200" d="M406 1131Q468 1236 530 1340T654 1547L963 1554Q906 1482 849 1411T737 1271T627 1134L406 1131Z" />
<glyph unicode="&#xb5;" glyph-name="uni00B5" horiz-adv-x="1163" d="M123 -393Q123 -286 123 -181T123 48V544Q123 643 123 718T123 860T123 998L422 1007Q422 936 422 867T422 727T422 582V416Q422 329 450 285T555 240Q596 240 631 257T695 304T749 370V582Q749
693 749 792T749 998H1047Q1047 927 1047 858T1047 713T1047 544V365Q1047 284 1047 193T1047 0H797Q792 40 788 80T778 160H753Q726 111 686 69T594 0T477 -27Q415 -27 369 -5T291 65H422V32Q422 -80 422 -178T422 -384L123 -393Z" />
<glyph unicode="&#xb6;" glyph-name="paragraph" horiz-adv-x="1158" d="M435 565Q307 565 221 626T92 786T49 1002Q49 1125 95 1221T228 1371T435 1426H476V565H435ZM445 -352Q445 -175 445 -16T445 306V768Q445 930 445 1089T445 1426H629Q629 1249 629 1090T629
768V306Q629 144 629 -15T629 -352H445ZM780 -352Q780 -175 780 -16T780 306V768Q780 930 780 1089T780 1426H964Q964 1249 964 1090T964 768V306Q964 144 964 -15T964 -352H780ZM539 1254V1426H731Q816 1426 912 1426T1111 1426V1254Q1008 1254 912 1254T731 1254H539Z"
/>
<glyph unicode="&#xb7;" glyph-name="middot" horiz-adv-x="529" d="M264 435Q206 435 165 459T101 524T78 617Q78 695 128 745T265 795Q323 795 364 773T428 710T451 617Q451 540 402 488T264 435Z" />
<glyph unicode="&#xb8;" glyph-name="cedilla" horiz-adv-x="1200" d="M544 -442Q518 -442 492 -440T444 -434T407 -425V-259Q420 -263 444 -267T498 -271Q554 -271 579 -254T605 -205Q605 -187 593 -171T552 -141T469 -117L541 54H697V0L654 -98Q722 -111 762
-135T818 -192T835 -266Q835 -315 808 -355T716 -418T544 -442Z" />
<glyph unicode="&#xb9;" glyph-name="uni00B9" horiz-adv-x="673" d="M86 1168L33 1351Q135 1397 233 1441T430 1529L421 1318Q346 1285 263 1248T86 1168ZM303 602Q303 675 303 742T303 893V1151Q303 1222 303 1290T303 1428L430 1529L541 1524Q541 1442 541
1361T541 1198V893Q541 809 541 742T541 602H303Z" />
<glyph unicode="&#xba;" glyph-name="ordmasculine" horiz-adv-x="919" d="M463 656Q326 656 237 712T103 860T59 1059Q59 1171 104 1260T239 1402T458 1455Q591 1455 680 1403T815 1260T860 1059Q860 944 814 853T678 709T463 656ZM461 839Q520 839 557 870T613
952T632 1059Q632 1158 586 1215T461 1272Q405 1272 366 1244T306 1167T285 1059Q285 1002 305 952T364 870T461 839Z" />
<glyph unicode="&#xbb;" glyph-name="guillemotright" horiz-adv-x="1291" d="M895 -4L603 14Q686 135 769 256T936 499V524Q852 644 769 764T603 1005L895 1020Q983 892 1070 764T1246 508Q1158 380 1071 252T895 -4ZM360 -4L68 14Q151 135 234 256T400 499V524Q317
644 234 764T68 1005L360 1020Q448 892 535 764T710 508Q623 380 536 252T360 -4Z" />
<glyph unicode="&#xbc;" glyph-name="onequarter" horiz-adv-x="2003" d="M86 1070L33 1253Q135 1299 233 1343T430 1431L421 1220Q346 1187 263 1150T86 1070ZM303 504Q303 577 303 644T303 795V1053Q303 1124 303 1192T303 1330L430 1431L541 1426Q541 1344
541 1263T541 1100V795Q541 711 541 644T541 504H303ZM463 0Q522 110 577 216T704 459L965 954Q1014 1048 1055 1126T1134 1277T1213 1426H1502Q1462 1350 1424 1278T1345 1127T1254 954L994 459Q922 323 867 217T752 0H463ZM1585 0Q1585 68 1585 126T1585 267L1611
298V549Q1611 617 1611 686T1611 823L1765 906Q1728 857 1692 810T1618 714L1459 506Q1427 464 1396 423T1333 340L1326 359H1650L1673 384Q1738 384 1820 384T1961 384V181Q1903 181 1821 181T1673 181H1144V335Q1170 368 1205 414T1277 508T1344 597L1462 752Q1495
794 1528 837T1593 922H1823Q1823 837 1823 756T1823 595V267Q1823 184 1823 126T1823 0H1585Z" />
<glyph unicode="&#xbd;" glyph-name="onehalf" horiz-adv-x="2129" d="M86 1070L33 1253Q135 1299 233 1343T430 1431L421 1220Q346 1187 263 1150T86 1070ZM303 504Q303 577 303 644T303 795V1053Q303 1124 303 1192T303 1330L430 1431L541 1426Q541 1344 541
1263T541 1100V795Q541 711 541 644T541 504H303ZM463 0Q522 110 577 216T704 459L965 954Q1014 1048 1055 1126T1134 1277T1213 1426H1502Q1462 1350 1424 1278T1345 1127T1254 954L994 459Q922 323 867 217T752 0H463ZM1356 0V154Q1395 184 1434 214T1512 275Q1604
345 1668 403T1765 515T1799 626Q1799 685 1762 715T1648 746Q1605 746 1559 734T1465 699T1371 647L1351 872Q1384 887 1425 900T1511 924T1604 940T1702 946Q1812 946 1889 912T2006 815T2046 663Q2046 592 2015 525T1920 390T1757 254L1616 155L1587 203H1726Q1809
203 1892 203T2057 203V0H1356Z" />
<glyph unicode="&#xbe;" glyph-name="threequarters" horiz-adv-x="2124" d="M411 481Q359 481 310 486T214 500T129 523T59 550L76 759Q115 740 154 725T232 698T308 681T382 675Q472 675 509 706T547 788Q547 843 499 872T356 901Q326 901 296 901T236 901V1047Q263
1047 289 1047T343 1047Q434 1047 477 1077T521 1158Q521 1208 482 1232T374 1256Q328 1256 281 1245T187 1213T96 1166L76 1379Q109 1393 148 1405T230 1428T321 1444T417 1450Q528 1450 606 1421T726 1336T767 1208Q767 1124 715 1074T587 1008V992Q638 983 685
956T763 880T794 758Q794 636 701 559T411 481ZM584 0Q643 110 698 216T825 459L1086 954Q1135 1048 1176 1126T1255 1277T1334 1426H1623Q1583 1350 1545 1278T1466 1127T1375 954L1115 459Q1043 323 988 217T873 0H584ZM1706 0Q1706 68 1706 126T1706 267L1732
298V549Q1732 617 1732 686T1732 823L1886 906Q1849 857 1813 810T1739 714L1580 506Q1548 464 1517 423T1454 340L1447 359H1771L1794 384Q1859 384 1941 384T2082 384V181Q2024 181 1942 181T1794 181H1265V335Q1291 368 1326 414T1398 508T1465 597L1583 752Q1616
794 1649 837T1714 922H1944Q1944 837 1944 756T1944 595V267Q1944 184 1944 126T1944 0H1706Z" />
<glyph unicode="&#xbf;" glyph-name="questiondown" horiz-adv-x="841" d="M457 -420Q334 -420 248 -389T117 -292T72 -125Q72 -27 111 42T207 160T319 248Q371 286 409 320T448 396Q448 437 421 453T359 469Q331 469 305 462T256 444L247 577Q269 585 301 592T371
605T449 611Q586 611 649 557T712 413Q712 347 684 299T611 212T515 137Q475 109 440 80T382 16T360 -59Q360 -114 403 -144T526 -174Q570 -174 618 -165T716 -138T816 -93L830 -345Q799 -356 759 -369T672 -394T570 -413T457 -420ZM477 744Q419 744 378 768T314
833T291 926Q291 1004 341 1054T478 1104Q536 1104 577 1082T640 1019T663 926Q663 849 614 797T477 744Z" />
<glyph unicode="&#xc0;" glyph-name="Agrave" horiz-adv-x="1437" d="M42 0Q80 115 121 242T200 483L361 972Q404 1105 439 1211T509 1426H933Q969 1314 1003 1208T1081 972L1240 482Q1279 364 1319 239T1397 0H1057Q1025 114 991 233T926 460L730 1147H706L508
467Q476 356 441 235T372 0H42ZM386 298L421 544H1058L1086 298H386ZM692 1551Q638 1613 583 1675T471 1800T356 1930L664 1936Q727 1840 789 1745T913 1555L692 1551Z" />
<glyph unicode="&#xc1;" glyph-name="Aacute" horiz-adv-x="1437" d="M42 0Q80 115 121 242T200 483L361 972Q404 1105 439 1211T509 1426H933Q969 1314 1003 1208T1081 972L1240 482Q1279 364 1319 239T1397 0H1057Q1025 114 991 233T926 460L730 1147H706L508
467Q476 356 441 235T372 0H42ZM386 298L421 544H1058L1086 298H386ZM525 1551Q588 1647 649 1741T773 1930L1082 1936Q1025 1870 968 1806T856 1679T746 1555L525 1551Z" />
<glyph unicode="&#xc2;" glyph-name="Acircumflex" horiz-adv-x="1437" d="M42 0Q80 115 121 242T200 483L361 972Q404 1105 439 1211T509 1426H933Q969 1314 1003 1208T1081 972L1240 482Q1279 364 1319 239T1397 0H1057Q1025 114 991 233T926 460L730 1147H706L508
467Q476 356 441 235T372 0H42ZM386 298L421 544H1058L1086 298H386ZM900 1549Q846 1616 791 1682T680 1817H755Q700 1750 646 1685T538 1553H317Q378 1647 440 1742T564 1933H871Q933 1837 995 1742T1119 1553L900 1549Z" />
<glyph unicode="&#xc3;" glyph-name="Atilde" horiz-adv-x="1437" d="M42 0Q80 115 121 242T200 483L361 972Q404 1105 439 1211T509 1426H933Q969 1314 1003 1208T1081 972L1240 482Q1279 364 1319 239T1397 0H1057Q1025 114 991 233T926 460L730 1147H706L508
467Q476 356 441 235T372 0H42ZM386 298L421 544H1058L1086 298H386ZM896 1536Q834 1536 787 1559T704 1613T638 1667T580 1691Q534 1691 513 1656T486 1572H330Q330 1731 390 1816T552 1902Q613 1902 658 1879T739 1824T804 1770T864 1747Q909 1747 928 1782T952
1866H1108Q1108 1707 1051 1622T896 1536Z" />
<glyph unicode="&#xc4;" glyph-name="Adieresis" horiz-adv-x="1437" d="M42 0Q80 115 121 242T200 483L361 972Q404 1105 439 1211T509 1426H933Q969 1314 1003 1208T1081 972L1240 482Q1279 364 1319 239T1397 0H1057Q1025 114 991 233T926 460L730 1147H706L508
467Q476 356 441 235T372 0H42ZM386 298L421 544H1058L1086 298H386ZM946 1565Q873 1565 831 1605T789 1725Q789 1797 831 1839T948 1882Q1021 1882 1063 1838T1105 1725Q1105 1645 1063 1605T946 1565ZM491 1565Q418 1565 376 1605T334 1725Q334 1797 376 1839T493
1882Q567 1882 608 1838T650 1725Q650 1645 608 1605T491 1565Z" />
<glyph unicode="&#xc5;" glyph-name="Aring" horiz-adv-x="1437" d="M42 0Q80 115 121 242T200 483L361 972Q404 1105 439 1211T509 1426H933Q969 1314 1003 1208T1081 972L1240 482Q1279 364 1319 239T1397 0H1057Q1025 114 991 233T926 460L730 1147H706L508
467Q476 356 441 235T372 0H42ZM386 298L421 544H1058L1086 298H386ZM717 1530Q637 1530 577 1556T484 1636T450 1769Q450 1876 524 1940T719 2004Q799 2004 859 1974T952 1891T986 1769Q986 1689 953 1636T859 1557T717 1530ZM717 1657Q771 1657 803 1685T835
1768Q835 1814 803 1846T719 1878Q666 1878 634 1847T601 1768Q601 1714 633 1686T717 1657Z" />
<glyph unicode="&#xc6;" glyph-name="AE" horiz-adv-x="1991" d="M25 0Q81 116 141 242T256 483L492 974Q553 1102 605 1210T708 1426H1885V1157Q1823 1157 1757 1157T1612 1157T1439 1157H1145L1260 1374Q1260 1257 1260 1146T1260 897V517Q1260 384 1260 276T1260
52L1158 269H1463Q1542 269 1615 269T1758 269T1893 269V0H938Q938 115 938 223T938 465V949Q938 1088 938 1196T938 1402L1099 1163H889L573 471Q522 357 467 236T360 0H25ZM426 298L461 544H1048L1077 298H426ZM1185 594V844H1446Q1577 844 1671 844T1853 844V594Q1807
594 1762 594T1667 594T1564 594T1446 594H1185Z" />
<glyph unicode="&#xc7;" glyph-name="Ccedilla" horiz-adv-x="1367" d="M828 -27Q654 -27 515 26T278 177T127 411T75 712Q75 926 162 1094T412 1359T802 1455Q871 1455 938 1446T1068 1422T1183 1388T1279 1346L1254 1040Q1176 1089 1104 1118T966 1161T839 1175Q717
1175 622 1122T473 965T418 712Q418 617 446 533T530 383T672 281T871 244Q918 244 965 250T1061 271T1157 309T1253 369L1271 67Q1228 43 1176 25T1067 -4T949 -21T828 -27ZM737 -442Q711 -442 685 -440T637 -434T600 -425V-259Q613 -263 637 -267T691 -271Q747
-271 772 -254T798 -205Q798 -187 786 -171T745 -141T662 -117L734 54H890V0L847 -98Q915 -111 955 -135T1011 -192T1028 -266Q1028 -315 1001 -355T909 -418T737 -442Z" />
<glyph unicode="&#xc8;" glyph-name="Egrave" horiz-adv-x="1193" d="M140 0Q140 115 140 223T140 465V949Q140 1087 140 1198T140 1426H1087V1157Q995 1157 890 1157T641 1157H305L462 1374Q462 1257 462 1146T462 897V517Q462 384 462 276T462 52L326 269H665Q784
269 890 269T1096 269V0H140ZM387 594V844H648Q780 844 874 844T1055 844V594Q963 594 869 594T648 594H387ZM592 1551Q538 1613 483 1675T371 1800T256 1930L564 1936Q627 1840 689 1745T813 1555L592 1551Z" />
<glyph unicode="&#xc9;" glyph-name="Eacute" horiz-adv-x="1193" d="M140 0Q140 115 140 223T140 465V949Q140 1087 140 1198T140 1426H1087V1157Q995 1157 890 1157T641 1157H305L462 1374Q462 1257 462 1146T462 897V517Q462 384 462 276T462 52L326 269H665Q784
269 890 269T1096 269V0H140ZM387 594V844H648Q780 844 874 844T1055 844V594Q963 594 869 594T648 594H387ZM425 1551Q488 1647 549 1741T673 1930L982 1936Q925 1870 868 1806T756 1679T646 1555L425 1551Z" />
<glyph unicode="&#xca;" glyph-name="Ecircumflex" horiz-adv-x="1193" d="M140 0Q140 115 140 223T140 465V949Q140 1087 140 1198T140 1426H1087V1157Q995 1157 890 1157T641 1157H305L462 1374Q462 1257 462 1146T462 897V517Q462 384 462 276T462 52L326 269H665Q784
269 890 269T1096 269V0H140ZM387 594V844H648Q780 844 874 844T1055 844V594Q963 594 869 594T648 594H387ZM800 1549Q746 1616 691 1682T580 1817H655Q600 1750 546 1685T438 1553H217Q278 1647 340 1742T464 1933H771Q833 1837 895 1742T1019 1553L800 1549Z"
/>
<glyph unicode="&#xcb;" glyph-name="Edieresis" horiz-adv-x="1193" d="M140 0Q140 115 140 223T140 465V949Q140 1087 140 1198T140 1426H1087V1157Q995 1157 890 1157T641 1157H305L462 1374Q462 1257 462 1146T462 897V517Q462 384 462 276T462 52L326 269H665Q784
269 890 269T1096 269V0H140ZM387 594V844H648Q780 844 874 844T1055 844V594Q963 594 869 594T648 594H387ZM846 1565Q773 1565 731 1605T689 1725Q689 1797 731 1839T848 1882Q921 1882 963 1838T1005 1725Q1005 1645 963 1605T846 1565ZM391 1565Q318 1565 276
1605T234 1725Q234 1797 276 1839T393 1882Q467 1882 508 1838T550 1725Q550 1645 508 1605T391 1565Z" />
<glyph unicode="&#xcc;" glyph-name="Igrave" horiz-adv-x="629" d="M147 0Q147 115 147 223T147 465V949Q147 1087 147 1198T147 1426H483Q483 1309 483 1198T483 949V465Q483 331 483 223T483 0H147ZM282 1551Q228 1613 173 1675T61 1800T-54 1930L254 1936Q317
1840 379 1745T503 1555L282 1551Z" />
<glyph unicode="&#xcd;" glyph-name="Iacute" horiz-adv-x="629" d="M147 0Q147 115 147 223T147 465V949Q147 1087 147 1198T147 1426H483Q483 1309 483 1198T483 949V465Q483 331 483 223T483 0H147ZM115 1551Q178 1647 239 1741T363 1930L672 1936Q615 1870
558 1806T446 1679T336 1555L115 1551Z" />
<glyph unicode="&#xce;" glyph-name="Icircumflex" horiz-adv-x="629" d="M147 0Q147 115 147 223T147 465V949Q147 1087 147 1198T147 1426H483Q483 1309 483 1198T483 949V465Q483 331 483 223T483 0H147ZM490 1549Q436 1616 381 1682T270 1817H345Q290 1750
236 1685T128 1553H-93Q-32 1647 30 1742T154 1933H461Q523 1837 585 1742T709 1553L490 1549Z" />
<glyph unicode="&#xcf;" glyph-name="Idieresis" horiz-adv-x="629" d="M147 0Q147 115 147 223T147 465V949Q147 1087 147 1198T147 1426H483Q483 1309 483 1198T483 949V465Q483 331 483 223T483 0H147ZM536 1565Q463 1565 421 1605T379 1725Q379 1797 421 1839T538
1882Q611 1882 653 1838T695 1725Q695 1645 653 1605T536 1565ZM81 1565Q8 1565 -34 1605T-76 1725Q-76 1797 -34 1839T83 1882Q157 1882 198 1838T240 1725Q240 1645 198 1605T81 1565Z" />
<glyph unicode="&#xd0;" glyph-name="Eth" horiz-adv-x="1467" d="M-27 594V816Q66 816 153 816T318 816H412Q490 816 577 816T757 816V594Q665 594 578 594T412 594H318Q241 594 154 594T-27 594ZM141 0Q141 115 141 223T141 465V949Q141 1087 141 1198T141 1426Q225
1426 317 1426T508 1426T708 1426Q871 1426 998 1379T1212 1241T1346 1019T1392 718Q1392 567 1352 437T1223 208T989 55T635 0Q539 0 455 0T294 0T141 0ZM470 263H634Q788 263 878 323T1009 487T1049 722Q1049 821 1026 902T954 1041T830 1131T651 1163H470Q470
1096 470 1028T470 872V544Q470 461 470 394T470 263Z" />
<glyph unicode="&#xd1;" glyph-name="Ntilde" horiz-adv-x="1500" d="M141 0Q141 115 141 223T141 465V949Q141 1087 141 1198T141 1426H428Q528 1280 617 1151T795 891L1027 555H1051V949Q1051 1087 1051 1198T1051 1426H1360Q1360 1309 1360 1198T1360 949V465Q1360
331 1360 223T1360 0H1076Q994 120 904 250T707 534L472 874H449V465Q449 331 449 223T449 0H141ZM929 1536Q867 1536 820 1559T737 1613T671 1667T613 1691Q567 1691 546 1656T519 1572H363Q363 1731 423 1816T585 1902Q646 1902 691 1879T772 1824T837 1770T897
1747Q942 1747 961 1782T985 1866H1141Q1141 1707 1084 1622T929 1536Z" />
<glyph unicode="&#xd2;" glyph-name="Ograve" horiz-adv-x="1628" d="M821 -27Q628 -27 487 32T255 195T120 432T75 712Q75 920 157 1088T403 1356T812 1455Q998 1455 1137 1398T1368 1238T1507 1002T1553 714Q1553 501 1469 334T1221 70T821 -27ZM816 244Q915
244 989 281T1112 385T1185 535T1210 714Q1210 813 1184 898T1107 1048T983 1148T816 1184Q719 1184 645 1147T520 1045T444 894T418 714Q418 619 443 535T517 385T641 282T816 244ZM787 1551Q733 1613 678 1675T566 1800T451 1930L759 1936Q822 1840 884 1745T1008
1555L787 1551Z" />
<glyph unicode="&#xd3;" glyph-name="Oacute" horiz-adv-x="1628" d="M821 -27Q628 -27 487 32T255 195T120 432T75 712Q75 920 157 1088T403 1356T812 1455Q998 1455 1137 1398T1368 1238T1507 1002T1553 714Q1553 501 1469 334T1221 70T821 -27ZM816 244Q915
244 989 281T1112 385T1185 535T1210 714Q1210 813 1184 898T1107 1048T983 1148T816 1184Q719 1184 645 1147T520 1045T444 894T418 714Q418 619 443 535T517 385T641 282T816 244ZM620 1551Q683 1647 744 1741T868 1930L1177 1936Q1120 1870 1063 1806T951 1679T841
1555L620 1551Z" />
<glyph unicode="&#xd4;" glyph-name="Ocircumflex" horiz-adv-x="1628" d="M821 -27Q628 -27 487 32T255 195T120 432T75 712Q75 920 157 1088T403 1356T812 1455Q998 1455 1137 1398T1368 1238T1507 1002T1553 714Q1553 501 1469 334T1221 70T821 -27ZM816 244Q915
244 989 281T1112 385T1185 535T1210 714Q1210 813 1184 898T1107 1048T983 1148T816 1184Q719 1184 645 1147T520 1045T444 894T418 714Q418 619 443 535T517 385T641 282T816 244ZM995 1549Q941 1616 886 1682T775 1817H850Q795 1750 741 1685T633 1553H412Q473
1647 535 1742T659 1933H966Q1028 1837 1090 1742T1214 1553L995 1549Z" />
<glyph unicode="&#xd5;" glyph-name="Otilde" horiz-adv-x="1628" d="M821 -27Q628 -27 487 32T255 195T120 432T75 712Q75 920 157 1088T403 1356T812 1455Q998 1455 1137 1398T1368 1238T1507 1002T1553 714Q1553 501 1469 334T1221 70T821 -27ZM816 244Q915
244 989 281T1112 385T1185 535T1210 714Q1210 813 1184 898T1107 1048T983 1148T816 1184Q719 1184 645 1147T520 1045T444 894T418 714Q418 619 443 535T517 385T641 282T816 244ZM991 1536Q929 1536 882 1559T799 1613T733 1667T675 1691Q629 1691 608 1656T581
1572H425Q425 1731 485 1816T647 1902Q708 1902 753 1879T834 1824T899 1770T959 1747Q1004 1747 1023 1782T1047 1866H1203Q1203 1707 1146 1622T991 1536Z" />
<glyph unicode="&#xd6;" glyph-name="Odieresis" horiz-adv-x="1628" d="M821 -27Q628 -27 487 32T255 195T120 432T75 712Q75 920 157 1088T403 1356T812 1455Q998 1455 1137 1398T1368 1238T1507 1002T1553 714Q1553 501 1469 334T1221 70T821 -27ZM816 244Q915
244 989 281T1112 385T1185 535T1210 714Q1210 813 1184 898T1107 1048T983 1148T816 1184Q719 1184 645 1147T520 1045T444 894T418 714Q418 619 443 535T517 385T641 282T816 244ZM1041 1565Q968 1565 926 1605T884 1725Q884 1797 926 1839T1043 1882Q1116 1882
1158 1838T1200 1725Q1200 1645 1158 1605T1041 1565ZM586 1565Q513 1565 471 1605T429 1725Q429 1797 471 1839T588 1882Q662 1882 703 1838T745 1725Q745 1645 703 1605T586 1565Z" />
<glyph unicode="&#xd7;" glyph-name="multiply" horiz-adv-x="1163" d="M884 120Q812 193 744 262T615 389L362 642Q303 702 235 770T94 910L278 1095Q352 1023 419 955T547 826L800 574Q860 513 928 446T1069 305L884 120ZM278 120L94 305Q143 353 189 399T279
489T363 574L616 826Q676 886 744 954T884 1095L1069 910Q996 838 928 770T800 642L547 389Q489 331 420 262T278 120Z" />
<glyph unicode="&#xd8;" glyph-name="Oslash" horiz-adv-x="1628" d="M821 -27Q628 -27 487 32T255 195T120 432T75 712Q75 920 157 1088T403 1356T812 1455Q998 1455 1137 1398T1368 1238T1507 1002T1553 714Q1553 501 1469 334T1221 70T821 -27ZM816 244Q915
244 989 281T1112 385T1185 535T1210 714Q1210 813 1184 898T1107 1048T983 1148T816 1184Q719 1184 645 1147T520 1045T444 894T418 714Q418 619 443 535T517 385T641 282T816 244ZM287 -152L139 -27Q243 110 335 230T535 491L928 1005Q1038 1148 1133 1272T1328
1528L1483 1412Q1381 1279 1287 1156T1083 889L685 369Q577 227 482 103T287 -152Z" />
<glyph unicode="&#xd9;" glyph-name="Ugrave" horiz-adv-x="1457" d="M731 -27Q513 -27 381 43T188 242T128 548Q128 587 128 651T128 793T128 949Q128 1087 128 1198T128 1426H456Q456 1309 456 1198T456 949V566Q456 464 484 392T572 282T730 244Q828 244 887
282T973 392T1000 567V949Q1000 1087 1000 1198T1000 1426H1328Q1328 1309 1328 1198T1328 949Q1328 871 1328 793T1328 649T1328 547Q1328 371 1265 242T1070 43T731 -27ZM703 1551Q649 1613 594 1675T482 1800T367 1930L675 1936Q738 1840 800 1745T924 1555L703
1551Z" />
<glyph unicode="&#xda;" glyph-name="Uacute" horiz-adv-x="1457" d="M731 -27Q513 -27 381 43T188 242T128 548Q128 587 128 651T128 793T128 949Q128 1087 128 1198T128 1426H456Q456 1309 456 1198T456 949V566Q456 464 484 392T572 282T730 244Q828 244 887
282T973 392T1000 567V949Q1000 1087 1000 1198T1000 1426H1328Q1328 1309 1328 1198T1328 949Q1328 871 1328 793T1328 649T1328 547Q1328 371 1265 242T1070 43T731 -27ZM536 1551Q599 1647 660 1741T784 1930L1093 1936Q1036 1870 979 1806T867 1679T757 1555L536
1551Z" />
<glyph unicode="&#xdb;" glyph-name="Ucircumflex" horiz-adv-x="1457" d="M731 -27Q513 -27 381 43T188 242T128 548Q128 587 128 651T128 793T128 949Q128 1087 128 1198T128 1426H456Q456 1309 456 1198T456 949V566Q456 464 484 392T572 282T730 244Q828 244
887 282T973 392T1000 567V949Q1000 1087 1000 1198T1000 1426H1328Q1328 1309 1328 1198T1328 949Q1328 871 1328 793T1328 649T1328 547Q1328 371 1265 242T1070 43T731 -27ZM911 1549Q857 1616 802 1682T691 1817H766Q711 1750 657 1685T549 1553H328Q389 1647
451 1742T575 1933H882Q944 1837 1006 1742T1130 1553L911 1549Z" />
<glyph unicode="&#xdc;" glyph-name="Udieresis" horiz-adv-x="1457" d="M731 -27Q513 -27 381 43T188 242T128 548Q128 587 128 651T128 793T128 949Q128 1087 128 1198T128 1426H456Q456 1309 456 1198T456 949V566Q456 464 484 392T572 282T730 244Q828 244
887 282T973 392T1000 567V949Q1000 1087 1000 1198T1000 1426H1328Q1328 1309 1328 1198T1328 949Q1328 871 1328 793T1328 649T1328 547Q1328 371 1265 242T1070 43T731 -27ZM957 1565Q884 1565 842 1605T800 1725Q800 1797 842 1839T959 1882Q1032 1882 1074
1838T1116 1725Q1116 1645 1074 1605T957 1565ZM502 1565Q429 1565 387 1605T345 1725Q345 1797 387 1839T504 1882Q578 1882 619 1838T661 1725Q661 1645 619 1605T502 1565Z" />
<glyph unicode="&#xdd;" glyph-name="Yacute" horiz-adv-x="1362" d="M527 503L233 1062Q185 1153 142 1236T41 1426H415Q452 1343 478 1284T527 1171T579 1054L671 846H698L789 1048Q820 1115 844 1170T896 1285T960 1426H1323Q1275 1334 1227 1243T1134 1063L841
503H527ZM520 0Q520 115 520 223T520 465V780H850V465Q850 331 850 223T850 0H520ZM491 1551Q554 1647 615 1741T739 1930L1048 1936Q991 1870 934 1806T822 1679T712 1555L491 1551Z" />
<glyph unicode="&#xde;" glyph-name="Thorn" horiz-adv-x="1298" d="M140 0Q140 115 140 223T140 465V949Q140 1087 140 1198T140 1426H464Q464 1309 464 1198T464 949V465Q464 331 464 223T464 0H140ZM727 280Q678 280 623 280T516 280T424 280V531H652Q738 531
793 554T874 625T901 750Q901 812 883 850T833 910T765 939T689 948H424V1206Q485 1206 554 1206T712 1206Q885 1206 1001 1164T1176 1023T1235 757Q1235 616 1185 509T1023 341T727 280Z" />
<glyph unicode="&#xdf;" glyph-name="germandbls" horiz-adv-x="1226" d="M728 -10Q698 -10 665 -7T605 1V212Q615 210 627 209T655 208Q755 208 801 271T848 420Q848 492 819 542T740 619T622 645V865Q672 865 713 890T778 959T803 1063Q803 1143 759 1195T634
1248Q557 1248 513 1199T468 1043V432Q468 308 468 208T468 0H169Q169 107 169 207T169 432V532Q169 657 169 781T169 1030Q169 1255 294 1374T644 1494Q780 1494 878 1451T1030 1327T1083 1133Q1083 1052 1058 991T990 889T896 824V800Q947 780 993 748T1076 668T1133
558T1154 412Q1154 223 1040 107T728 -10ZM37 774V998H255V774H37Z" />
<glyph unicode="&#xe0;" glyph-name="agrave" horiz-adv-x="1043" d="M358 -24Q272 -24 208 12T108 113T72 269Q72 354 102 411T179 505T283 560T394 588L672 631Q674 689 650 721T581 767T472 780Q438 780 398 775T315 758T225 731T131 692L117 947Q154 960 202
974T306 999T424 1018T553 1025Q678 1025 766 989T902 874T949 670Q949 621 949 550T949 423V328Q949 252 949 172T949 0H694L675 133H652Q625 95 584 59T487 -1T358 -24ZM477 207Q512 207 547 223T612 270T664 343V496Q652 487 634 480T580 464T481 442Q445 435
419 418T379 375T364 312Q364 255 398 231T477 207ZM761 1131Q707 1198 652 1266T540 1405T425 1547L733 1554Q795 1449 857 1345T982 1134L761 1131Z" />
<glyph unicode="&#xe1;" glyph-name="aacute" horiz-adv-x="1043" d="M358 -24Q272 -24 208 12T108 113T72 269Q72 354 102 411T179 505T283 560T394 588L672 631Q674 689 650 721T581 767T472 780Q438 780 398 775T315 758T225 731T131 692L117 947Q154 960 202
974T306 999T424 1018T553 1025Q678 1025 766 989T902 874T949 670Q949 621 949 550T949 423V328Q949 252 949 172T949 0H694L675 133H652Q625 95 584 59T487 -1T358 -24ZM477 207Q512 207 547 223T612 270T664 343V496Q652 487 634 480T580 464T481 442Q445 435
419 418T379 375T364 312Q364 255 398 231T477 207ZM594 1131Q656 1236 718 1340T842 1547L1151 1554Q1094 1482 1037 1411T925 1271T815 1134L594 1131Z" />
<glyph unicode="&#xe2;" glyph-name="acircumflex" horiz-adv-x="1043" d="M358 -24Q272 -24 208 12T108 113T72 269Q72 354 102 411T179 505T283 560T394 588L672 631Q674 689 650 721T581 767T472 780Q438 780 398 775T315 758T225 731T131 692L117 947Q154
960 202 974T306 999T424 1018T553 1025Q678 1025 766 989T902 874T949 670Q949 621 949 550T949 423V328Q949 252 949 172T949 0H694L675 133H652Q625 95 584 59T487 -1T358 -24ZM477 207Q512 207 547 223T612 270T664 343V496Q652 487 634 480T580 464T481 442Q445
435 419 418T379 375T364 312Q364 255 398 231T477 207ZM969 1129Q915 1201 862 1273T753 1418H822Q767 1345 714 1275T607 1133H386Q447 1236 509 1340T633 1550H940Q1003 1445 1064 1341T1188 1132L969 1129Z" />
<glyph unicode="&#xe3;" glyph-name="atilde" horiz-adv-x="1043" d="M358 -24Q272 -24 208 12T108 113T72 269Q72 354 102 411T179 505T283 560T394 588L672 631Q674 689 650 721T581 767T472 780Q438 780 398 775T315 758T225 731T131 692L117 947Q154 960 202
974T306 999T424 1018T553 1025Q678 1025 766 989T902 874T949 670Q949 621 949 550T949 423V328Q949 252 949 172T949 0H694L675 133H652Q625 95 584 59T487 -1T358 -24ZM477 207Q512 207 547 223T612 270T664 343V496Q652 487 634 480T580 464T481 442Q445 435
419 418T379 375T364 312Q364 255 398 231T477 207ZM965 1115Q903 1115 856 1138T773 1192T707 1246T649 1270Q603 1270 582 1235T555 1151H399Q399 1311 459 1396T621 1481Q682 1481 727 1458T808 1404T873 1350T933 1326Q978 1326 997 1362T1021 1445H1177Q1177
1286 1120 1201T965 1115Z" />
<glyph unicode="&#xe4;" glyph-name="adieresis" horiz-adv-x="1043" d="M358 -24Q272 -24 208 12T108 113T72 269Q72 354 102 411T179 505T283 560T394 588L672 631Q674 689 650 721T581 767T472 780Q438 780 398 775T315 758T225 731T131 692L117 947Q154 960
202 974T306 999T424 1018T553 1025Q678 1025 766 989T902 874T949 670Q949 621 949 550T949 423V328Q949 252 949 172T949 0H694L675 133H652Q625 95 584 59T487 -1T358 -24ZM477 207Q512 207 547 223T612 270T664 343V496Q652 487 634 480T580 464T481 442Q445
435 419 418T379 375T364 312Q364 255 398 231T477 207ZM1015 1144Q942 1144 900 1184T858 1304Q858 1376 900 1419T1017 1462Q1090 1462 1132 1418T1174 1304Q1174 1224 1132 1184T1015 1144ZM560 1144Q487 1144 445 1184T403 1304Q403 1376 445 1419T562 1462Q636
1462 677 1418T719 1304Q719 1224 677 1184T560 1144Z" />
<glyph unicode="&#xe5;" glyph-name="aring" horiz-adv-x="1043" d="M358 -24Q272 -24 208 12T108 113T72 269Q72 354 102 411T179 505T283 560T394 588L672 631Q674 689 650 721T581 767T472 780Q438 780 398 775T315 758T225 731T131 692L117 947Q154 960 202
974T306 999T424 1018T553 1025Q678 1025 766 989T902 874T949 670Q949 621 949 550T949 423V328Q949 252 949 172T949 0H694L675 133H652Q625 95 584 59T487 -1T358 -24ZM477 207Q512 207 547 223T612 270T664 343V496Q652 487 634 480T580 464T481 442Q445 435
419 418T379 375T364 312Q364 255 398 231T477 207ZM786 1102Q706 1102 646 1128T553 1208T519 1341Q519 1448 593 1512T788 1576Q868 1576 928 1546T1021 1463T1055 1341Q1055 1261 1022 1208T928 1129T786 1102ZM786 1229Q840 1229 872 1257T904 1340Q904 1386
872 1418T788 1450Q735 1450 703 1419T670 1340Q670 1286 702 1258T786 1229Z" />
<glyph unicode="&#xe6;" glyph-name="ae" horiz-adv-x="1611" d="M1192 -26Q1013 -26 899 42T729 229T674 502Q674 656 722 774T869 958T1124 1025Q1259 1025 1355 977T1503 830T1555 583Q1555 543 1554 512T1547 450L1290 547Q1292 560 1293 574T1294 600Q1294
701 1246 758T1124 816Q1068 816 1024 783T955 689T930 546V497Q930 366 1002 293T1227 220Q1267 220 1319 227T1426 250T1529 290L1539 38Q1500 20 1448 6T1331 -17T1192 -26ZM465 207Q501 207 536 223T601 270T653 343V496Q641 487 623 480T569 464T469 442Q433
435 407 418T367 375T352 312Q352 255 386 231T465 207ZM379 -24Q277 -24 206 12T98 113T61 269Q61 354 91 411T168 505T272 560T383 588L661 631Q663 689 639 721T570 767T461 780Q427 780 387 775T304 758T214 731T120 692L106 947Q141 960 186 974T285 999T397
1018T518 1025Q697 1025 789 942T882 670L838 508L833 254Q776 154 707 93T555 4T379 -24ZM760 450V610L1372 623L1547 574V450H760Z" />
<glyph unicode="&#xe7;" glyph-name="ccedilla" horiz-adv-x="969" d="M599 -22Q429 -22 311 45T131 230T69 497Q69 648 126 767T297 955T580 1024Q640 1024 698 1015T809 990T902 952L880 694Q823 727 776 743T690 765T622 771Q509 771 442 700T374 506Q374 423
407 360T506 260T668 224Q705 224 742 231T815 252T885 288L900 30Q866 15 822 4T722 -15T599 -22ZM761 -442Q735 -442 709 -440T661 -434T624 -425V-259Q637 -263 661 -267T715 -271Q771 -271 796 -254T822 -205Q822 -187 810 -171T769 -141T686 -117L758 54H914V0L871
-98Q939 -111 979 -135T1035 -192T1052 -266Q1052 -315 1025 -355T933 -418T761 -442Z" />
<glyph unicode="&#xe8;" glyph-name="egrave" horiz-adv-x="1054" d="M623 -26Q430 -26 308 42T128 229T70 502Q70 656 124 774T285 958T553 1025Q689 1025 786 977T935 830T987 583Q987 543 985 512T978 450L722 547Q724 560 725 574T726 600Q726 701 679 758T556
816Q499 816 455 783T386 689T361 546V497Q361 410 392 348T490 253T659 220Q699 220 751 227T858 250T960 290L970 38Q931 20 880 6T763 -17T623 -26ZM185 450V610L804 623L978 574V450H185ZM781 1131Q727 1198 672 1266T560 1405T445 1547L753 1554Q815 1449
877 1345T1002 1134L781 1131Z" />
<glyph unicode="&#xe9;" glyph-name="eacute" horiz-adv-x="1054" d="M623 -26Q430 -26 308 42T128 229T70 502Q70 656 124 774T285 958T553 1025Q689 1025 786 977T935 830T987 583Q987 543 985 512T978 450L722 547Q724 560 725 574T726 600Q726 701 679 758T556
816Q499 816 455 783T386 689T361 546V497Q361 410 392 348T490 253T659 220Q699 220 751 227T858 250T960 290L970 38Q931 20 880 6T763 -17T623 -26ZM185 450V610L804 623L978 574V450H185ZM614 1131Q676 1236 738 1340T862 1547L1171 1554Q1114 1482 1057 1411T945
1271T835 1134L614 1131Z" />
<glyph unicode="&#xea;" glyph-name="ecircumflex" horiz-adv-x="1054" d="M623 -26Q430 -26 308 42T128 229T70 502Q70 656 124 774T285 958T553 1025Q689 1025 786 977T935 830T987 583Q987 543 985 512T978 450L722 547Q724 560 725 574T726 600Q726 701 679
758T556 816Q499 816 455 783T386 689T361 546V497Q361 410 392 348T490 253T659 220Q699 220 751 227T858 250T960 290L970 38Q931 20 880 6T763 -17T623 -26ZM185 450V610L804 623L978 574V450H185ZM989 1129Q935 1201 882 1273T773 1418H842Q787 1345 734 1275T627
1133H406Q467 1236 529 1340T653 1550H960Q1023 1445 1084 1341T1208 1132L989 1129Z" />
<glyph unicode="&#xeb;" glyph-name="edieresis" horiz-adv-x="1054" d="M623 -26Q430 -26 308 42T128 229T70 502Q70 656 124 774T285 958T553 1025Q689 1025 786 977T935 830T987 583Q987 543 985 512T978 450L722 547Q724 560 725 574T726 600Q726 701 679
758T556 816Q499 816 455 783T386 689T361 546V497Q361 410 392 348T490 253T659 220Q699 220 751 227T858 250T960 290L970 38Q931 20 880 6T763 -17T623 -26ZM185 450V610L804 623L978 574V450H185ZM1035 1144Q962 1144 920 1184T878 1304Q878 1376 920 1419T1037
1462Q1110 1462 1152 1418T1194 1304Q1194 1224 1152 1184T1035 1144ZM580 1144Q507 1144 465 1184T423 1304Q423 1376 465 1419T582 1462Q656 1462 697 1418T739 1304Q739 1224 697 1184T580 1144Z" />
<glyph unicode="&#xec;" glyph-name="igrave" horiz-adv-x="557" d="M129 0Q129 107 129 207T129 432V532Q129 631 129 709T129 857T129 998L428 1007Q428 935 428 864T428 713T428 532V432Q428 308 428 208T428 0H129ZM252 1131Q198 1198 143 1266T31 1405T-84
1547L224 1554Q286 1449 348 1345T473 1134L252 1131Z" />
<glyph unicode="&#xed;" glyph-name="iacute" horiz-adv-x="557" d="M129 0Q129 107 129 207T129 432V532Q129 631 129 709T129 857T129 998L428 1007Q428 935 428 864T428 713T428 532V432Q428 308 428 208T428 0H129ZM85 1131Q147 1236 209 1340T333 1547L642
1554Q585 1482 528 1411T416 1271T306 1134L85 1131Z" />
<glyph unicode="&#xee;" glyph-name="icircumflex" horiz-adv-x="557" d="M129 0Q129 107 129 207T129 432V532Q129 631 129 709T129 857T129 998L428 1007Q428 935 428 864T428 713T428 532V432Q428 308 428 208T428 0H129ZM426 1129Q386 1198 345 1267T264 1408T181
1550H415Q470 1445 524 1342T633 1132L426 1129ZM-77 1133Q-21 1238 32 1341T142 1550H375Q333 1479 293 1409T212 1270T132 1133H-77Z" />
<glyph unicode="&#xef;" glyph-name="idieresis" horiz-adv-x="557" d="M129 0Q129 107 129 207T129 432V532Q129 631 129 709T129 857T129 998L428 1007Q428 935 428 864T428 713T428 532V432Q428 308 428 208T428 0H129ZM474 1144Q405 1144 366 1184T326 1304Q326
1376 366 1419T476 1462Q546 1462 585 1418T625 1304Q625 1251 607 1216T556 1162T474 1144ZM82 1144Q13 1144 -26 1184T-66 1304Q-66 1376 -26 1419T84 1462Q154 1462 193 1418T232 1304Q232 1251 214 1216T163 1162T82 1144Z" />
<glyph unicode="&#xf0;" glyph-name="eth" horiz-adv-x="1189" d="M600 -26Q419 -26 302 45T127 232T70 482Q70 618 121 721T262 881T470 939Q519 939 573 928T676 895T764 841L806 866Q857 801 867 726T835 586Q790 640 745 666T661 701T594 710Q521 710 472
676T398 587T373 469Q373 406 398 349T474 254T598 217Q708 217 761 323T814 637Q814 796 757 933T589 1191Q533 1253 463 1310T307 1421L548 1510Q625 1467 694 1416T824 1304Q961 1168 1040 996T1119 605Q1119 414 1066 272T898 52T600 -26ZM314 1020L253 1199Q347
1231 432 1260T593 1314L690 1348Q765 1373 850 1401T1028 1462L1090 1283Q997 1252 911 1223T748 1167L654 1136Q578 1110 492 1081T314 1020Z" />
<glyph unicode="&#xf1;" glyph-name="ntilde" horiz-adv-x="1157" d="M123 0Q123 107 123 207T123 432V532Q123 647 123 763T123 998L374 1013L387 839H412Q446 888 494 930T604 999T747 1025Q897 1025 974 937T1051 672Q1051 606 1051 550T1051 432Q1051 310
1051 209T1051 0H753Q753 107 753 207T753 416V576Q753 664 724 708T620 753Q577 753 541 736T475 689T422 623V416Q422 304 422 206T422 0H123ZM1020 1115Q958 1115 911 1138T828 1192T762 1246T704 1270Q658 1270 637 1235T610 1151H454Q454 1311 514 1396T676
1481Q737 1481 782 1458T863 1404T928 1350T988 1326Q1033 1326 1052 1362T1076 1445H1232Q1232 1286 1175 1201T1020 1115Z" />
<glyph unicode="&#xf2;" glyph-name="ograve" horiz-adv-x="1195" d="M602 -27Q466 -27 366 16T200 133T102 302T69 502Q69 651 129 769T307 956T596 1025Q728 1025 827 986T993 875T1093 708T1126 502Q1126 351 1065 232T887 43T602 -27ZM601 217Q676 217 724
257T797 363T822 502Q822 590 794 652T716 748T600 781Q526 781 476 744T400 644T374 502Q374 428 399 363T475 258T601 217ZM826 1131Q772 1198 717 1266T605 1405T490 1547L798 1554Q860 1449 922 1345T1047 1134L826 1131Z" />
<glyph unicode="&#xf3;" glyph-name="oacute" horiz-adv-x="1195" d="M602 -27Q466 -27 366 16T200 133T102 302T69 502Q69 651 129 769T307 956T596 1025Q728 1025 827 986T993 875T1093 708T1126 502Q1126 351 1065 232T887 43T602 -27ZM601 217Q676 217 724
257T797 363T822 502Q822 590 794 652T716 748T600 781Q526 781 476 744T400 644T374 502Q374 428 399 363T475 258T601 217ZM659 1131Q721 1236 783 1340T907 1547L1216 1554Q1159 1482 1102 1411T990 1271T880 1134L659 1131Z" />
<glyph unicode="&#xf4;" glyph-name="ocircumflex" horiz-adv-x="1195" d="M602 -27Q466 -27 366 16T200 133T102 302T69 502Q69 651 129 769T307 956T596 1025Q728 1025 827 986T993 875T1093 708T1126 502Q1126 351 1065 232T887 43T602 -27ZM601 217Q676 217
724 257T797 363T822 502Q822 590 794 652T716 748T600 781Q526 781 476 744T400 644T374 502Q374 428 399 363T475 258T601 217ZM1034 1129Q980 1201 927 1273T818 1418H887Q832 1345 779 1275T672 1133H451Q512 1236 574 1340T698 1550H1005Q1068 1445 1129 1341T1253
1132L1034 1129Z" />
<glyph unicode="&#xf5;" glyph-name="otilde" horiz-adv-x="1195" d="M602 -27Q466 -27 366 16T200 133T102 302T69 502Q69 651 129 769T307 956T596 1025Q728 1025 827 986T993 875T1093 708T1126 502Q1126 351 1065 232T887 43T602 -27ZM601 217Q676 217 724
257T797 363T822 502Q822 590 794 652T716 748T600 781Q526 781 476 744T400 644T374 502Q374 428 399 363T475 258T601 217ZM1030 1115Q968 1115 921 1138T838 1192T772 1246T714 1270Q668 1270 647 1235T620 1151H464Q464 1311 524 1396T686 1481Q747 1481 792
1458T873 1404T938 1350T998 1326Q1043 1326 1062 1362T1086 1445H1242Q1242 1286 1185 1201T1030 1115Z" />
<glyph unicode="&#xf6;" glyph-name="odieresis" horiz-adv-x="1195" d="M602 -27Q466 -27 366 16T200 133T102 302T69 502Q69 651 129 769T307 956T596 1025Q728 1025 827 986T993 875T1093 708T1126 502Q1126 351 1065 232T887 43T602 -27ZM601 217Q676 217
724 257T797 363T822 502Q822 590 794 652T716 748T600 781Q526 781 476 744T400 644T374 502Q374 428 399 363T475 258T601 217ZM1080 1144Q1007 1144 965 1184T923 1304Q923 1376 965 1419T1082 1462Q1155 1462 1197 1418T1239 1304Q1239 1224 1197 1184T1080
1144ZM625 1144Q552 1144 510 1184T468 1304Q468 1376 510 1419T627 1462Q701 1462 742 1418T784 1304Q784 1224 742 1184T625 1144Z" />
<glyph unicode="&#xf7;" glyph-name="divide" horiz-adv-x="1157" d="M103 478V737Q206 737 302 737T482 737H675Q760 737 856 737T1055 737V478Q952 478 856 478T675 478H482Q398 478 302 478T103 478ZM575 53Q502 53 459 98T415 211Q415 280 458 323T577 366Q652
366 695 323T739 211Q739 143 696 98T575 53ZM576 847Q501 847 458 892T415 1005Q415 1074 458 1117T577 1161Q652 1161 695 1118T739 1005Q739 938 696 893T576 847Z" />
<glyph unicode="&#xf8;" glyph-name="oslash" horiz-adv-x="1195" d="M603 -26Q466 -26 366 16T200 133T102 302T70 502Q70 651 130 769T307 956T597 1025Q728 1025 827 985T993 874T1092 708T1126 502Q1126 351 1065 232T887 44T603 -26ZM601 205Q679 205 730
247T807 357T833 502Q833 593 804 658T722 758T600 793Q522 793 469 755T389 650T361 502Q361 425 388 357T469 247T601 205ZM212 -147L88 -45Q166 57 235 147T382 340L672 718Q755 827 825 918T969 1107L1097 1011Q1022 913 951 821T799 621L505 237Q425 132 356
41T212 -147Z" />
<glyph unicode="&#xf9;" glyph-name="ugrave" horiz-adv-x="1141" d="M409 -27Q259 -27 182 62T105 327Q105 394 105 443T105 544Q105 643 105 718T105 860T105 998L404 1007Q404 900 404 797T404 582V416Q404 329 433 285T537 240Q578 240 613 257T678 304T731
370V582Q731 693 731 792T731 998H1030Q1030 892 1030 788T1030 544V432Q1030 308 1030 208T1030 0H779L766 159H740Q707 111 660 69T550 0T409 -27ZM798 1131Q744 1198 689 1266T577 1405T462 1547L770 1554Q832 1449 894 1345T1019 1134L798 1131Z" />
<glyph unicode="&#xfa;" glyph-name="uacute" horiz-adv-x="1141" d="M409 -27Q259 -27 182 62T105 327Q105 394 105 443T105 544Q105 643 105 718T105 860T105 998L404 1007Q404 900 404 797T404 582V416Q404 329 433 285T537 240Q578 240 613 257T678 304T731
370V582Q731 693 731 792T731 998H1030Q1030 892 1030 788T1030 544V432Q1030 308 1030 208T1030 0H779L766 159H740Q707 111 660 69T550 0T409 -27ZM631 1131Q693 1236 755 1340T879 1547L1188 1554Q1131 1482 1074 1411T962 1271T852 1134L631 1131Z" />
<glyph unicode="&#xfb;" glyph-name="ucircumflex" horiz-adv-x="1141" d="M409 -27Q259 -27 182 62T105 327Q105 394 105 443T105 544Q105 643 105 718T105 860T105 998L404 1007Q404 900 404 797T404 582V416Q404 329 433 285T537 240Q578 240 613 257T678 304T731
370V582Q731 693 731 792T731 998H1030Q1030 892 1030 788T1030 544V432Q1030 308 1030 208T1030 0H779L766 159H740Q707 111 660 69T550 0T409 -27ZM1006 1129Q952 1201 899 1273T790 1418H859Q804 1345 751 1275T644 1133H423Q484 1236 546 1340T670 1550H977Q1040
1445 1101 1341T1225 1132L1006 1129Z" />
<glyph unicode="&#xfc;" glyph-name="udieresis" horiz-adv-x="1141" d="M409 -27Q259 -27 182 62T105 327Q105 394 105 443T105 544Q105 643 105 718T105 860T105 998L404 1007Q404 900 404 797T404 582V416Q404 329 433 285T537 240Q578 240 613 257T678 304T731
370V582Q731 693 731 792T731 998H1030Q1030 892 1030 788T1030 544V432Q1030 308 1030 208T1030 0H779L766 159H740Q707 111 660 69T550 0T409 -27ZM1052 1144Q979 1144 937 1184T895 1304Q895 1376 937 1419T1054 1462Q1127 1462 1169 1418T1211 1304Q1211 1224
1169 1184T1052 1144ZM597 1144Q524 1144 482 1184T440 1304Q440 1376 482 1419T599 1462Q673 1462 714 1418T756 1304Q756 1224 714 1184T597 1144Z" />
<glyph unicode="&#xfd;" glyph-name="yacute" horiz-adv-x="1098" d="M227 -393Q268 -291 310 -185T393 23V-33Q357 70 320 174T247 379L184 559Q146 666 107 778T29 998L351 1007Q379 898 406 795T461 582L531 312H555L632 582Q662 687 691 790T749 998H1069Q1038
918 1009 843T946 678T863 462L754 182Q681 -8 630 -142T536 -384L227 -393ZM611 1131Q673 1236 735 1340T859 1547L1168 1554Q1111 1482 1054 1411T942 1271T832 1134L611 1131Z" />
<glyph unicode="&#xfe;" glyph-name="thorn" horiz-adv-x="1184" d="M123 -393Q123 -286 123 -181T123 48V987Q123 1109 123 1228T123 1466L422 1492Q422 1374 422 1250T422 987V885H447Q474 924 513 956T603 1006T719 1025Q846 1025 934 956T1067 768T1113 500Q1113
361 1070 241T937 47T712 -27Q651 -27 602 -11T512 36T440 108H422V32Q422 -80 422 -178T422 -384L123 -393ZM599 227Q670 227 716 266T785 366T807 498Q807 571 784 632T715 731T597 768Q562 768 530 758T470 727T422 679V339Q440 305 465 280T523 241T599 227Z"
/>
<glyph unicode="&#xff;" glyph-name="ydieresis" horiz-adv-x="1098" d="M227 -393Q268 -291 310 -185T393 23V-33Q357 70 320 174T247 379L184 559Q146 666 107 778T29 998L351 1007Q379 898 406 795T461 582L531 312H555L632 582Q662 687 691 790T749 998H1069Q1038
918 1009 843T946 678T863 462L754 182Q681 -8 630 -142T536 -384L227 -393ZM1032 1144Q959 1144 917 1184T875 1304Q875 1376 917 1419T1034 1462Q1107 1462 1149 1418T1191 1304Q1191 1224 1149 1184T1032 1144ZM577 1144Q504 1144 462 1184T420 1304Q420 1376
462 1419T579 1462Q653 1462 694 1418T736 1304Q736 1224 694 1184T577 1144Z" />
<glyph unicode="&#x2013;" glyph-name="endash" horiz-adv-x="1227" d="M103 473V730Q206 730 302 730T482 730H745Q829 730 925 730T1124 730V473Q1022 473 926 473T745 473H482Q398 473 302 473T103 473Z" />
<glyph unicode="&#x2014;" glyph-name="emdash" horiz-adv-x="1597" d="M103 473V730Q196 730 285 730T459 730T620 730H978Q1054 730 1138 730T1311 730T1495 730V473Q1401 473 1312 473T1138 473T978 473H620Q543 473 459 473T286 473T103 473Z" />
<glyph unicode="&#x2018;" glyph-name="quoteleft" horiz-adv-x="500" d="M235 846Q153 856 116 910T79 1043Q79 1115 101 1181T160 1307T241 1414T330 1495L473 1498Q437 1441 414 1381T380 1254T369 1110Q369 1051 369 987T369 857L235 846Z" />
<glyph unicode="&#x2019;" glyph-name="quoteright" horiz-adv-x="500" d="M27 842Q63 899 86 959T120 1086T131 1230Q131 1290 131 1354T131 1483L265 1494Q348 1485 384 1431T421 1297Q421 1226 399 1159T340 1033T259 926T170 845L27 842Z" />
<glyph unicode="&#x201a;" glyph-name="quotesinglbase" horiz-adv-x="500" d="M27 -314Q63 -257 86 -197T120 -70T131 74Q131 134 131 198T131 327L265 338Q348 329 384 275T421 141Q421 70 399 3T340 -123T259 -230T170 -311L27 -314Z" />
<glyph unicode="&#x201c;" glyph-name="quotedblleft" horiz-adv-x="916" d="M650 846Q568 856 531 910T494 1043Q494 1115 516 1181T576 1307T657 1414T746 1495L889 1498Q852 1441 830 1381T796 1254T785 1110Q785 1051 785 987T785 857L650 846ZM235 846Q153
856 116 910T79 1043Q79 1115 101 1181T160 1307T241 1414T330 1495L473 1498Q437 1441 414 1381T380 1254T369 1110Q369 1051 369 987T369 857L235 846Z" />
<glyph unicode="&#x201d;" glyph-name="quotedblright" horiz-adv-x="916" d="M443 842Q479 899 502 959T536 1086T547 1230Q547 1290 547 1354T547 1483L681 1494Q764 1485 800 1431T837 1297Q837 1226 815 1159T756 1033T675 926T586 845L443 842ZM27 842Q63
899 86 959T120 1086T131 1230Q131 1290 131 1354T131 1483L265 1494Q348 1485 384 1431T421 1297Q421 1226 399 1159T340 1033T259 926T170 845L27 842Z" />
<glyph unicode="&#x201e;" glyph-name="quotedblbase" horiz-adv-x="916" d="M443 -314Q479 -257 502 -197T536 -70T547 74Q547 134 547 198T547 327L681 338Q764 329 800 275T837 141Q837 70 815 3T756 -123T675 -230T586 -311L443 -314ZM27 -314Q63 -257 86
-197T120 -70T131 74Q131 134 131 198T131 327L265 338Q348 329 384 275T421 141Q421 70 399 3T340 -123T259 -230T170 -311L27 -314Z" />
<glyph unicode="&#x2022;" glyph-name="bullet" horiz-adv-x="867" d="M433 293Q336 293 268 334T162 446T125 603Q125 690 162 759T268 868T433 908Q529 908 598 868T704 759T741 603Q741 516 705 446T599 335T433 293Z" />
<glyph unicode="&#x2039;" glyph-name="guilsinglleft" horiz-adv-x="756" d="M396 -4Q308 124 221 252T45 508Q133 636 220 764T396 1020L688 1002Q605 881 522 760T355 516V492Q439 372 522 252T688 11L396 -4Z" />
<glyph unicode="&#x203a;" glyph-name="guilsinglright" horiz-adv-x="756" d="M360 -4L68 14Q151 135 234 256T400 499V524Q317 644 234 764T68 1005L360 1020Q448 892 535 764T710 508Q623 380 536 252T360 -4Z" />
</font>
</defs>
</svg>
